<?xml version="1.0" encoding="UTF-8" standalone="no"?>
<svg width="297.0mm" height="210.0mm" viewBox="0 0 297.0 210.0" >
<g transform="translate(11.0,15.0)">
<g transform="translate(0,120.0)">
<g transform="translate(220.0,0)"
><g><polygon points="0.0,0 0.0,32.90462377777153 0.6875,32.98471996658487 1.375,33.05932257491372 2.0625,33.12708114765868 2.75,33.186765818024526 3.4375,33.23729084477971 4.125,33.2777351168787 4.8125,33.3073592151076 5.5,33.325618707792785 6.1875,33.33217345748017 6.875,33.32689282782737 7.562500000000001,33.309856805375475 8.25,33.28135319102242 8.9375,33.241871174102236 9.625,33.192091783455865 10.3125,33.13287592350912 11.0,33.0652509625079 11.6875,32.990397164396484 12.375,32.909635673490996 13.0625,32.82442031087341 13.75,32.736336174240776 14.4375,32.6471090106567 15.125000000000002,32.55863061848888 15.812499999999998,32.47300717156878 16.5,32.392639299747856 17.1875,32.3203447355575 17.875,32.25953557035355 18.5625,32.21446083631966 19.25,32.19051744375294 19.9375,32.19461123696857 20.625,32.235502765209816 21.3125,32.32398140854999 22.0,32.4725584787565 22.6875,32.694156770971986 23.375,32.99907333711131 24.0625,33.38953009008279 24.75,33.85183641640717 25.4375,34.34802930179201 26.125,34.811618762310246 26.8125,35.15384760634217 27.5,35.284279095917015 28.187499999999996,35.14106042115877 28.875,34.716820930349655 29.5625,34.06525971774836 30.250000000000004,33.2843685636993 30.9375,32.48616910907596 31.624999999999996,31.768232418121773 32.3125,31.197073380273924 33.0,30.804749547431808 33.6875,30.59435590034739 34.375,30.549065286902568 35.0625,30.640946415009026 35.75,30.83781533441501 36.4375,31.107794276554127 37.125,31.421937942378303 37.8125,31.75547856364836 38.5,32.088191568665565 39.1875,32.40425693815388 39.875,32.69186583683477 40.5625,32.942724710629676 41.25,33.15154231733518 41.9375,33.31554310085837 42.625,33.43402556117425 43.3125,33.50797068484533 44.0,33.53969869963919 44.6875,33.532569519090345 45.375,33.490721458993804 46.0625,33.418843075722165 46.75,33.32197369224042 47.4375,33.20532901526235 48.125,33.07414904161714 48.8125,32.93356613050831 49.5,32.788491657520495 50.1875,32.64352006801977 50.875,32.50284942599333 51.5625,32.370217727956806 52.25,32.248854339671766 52.9375,32.1414459343573 53.625,32.05011628132199 54.3125,31.97641916792831 55.0,31.921343647981494 55.0,0 " style="fill:none;stroke:#ff0000;stroke-width:0.1"/>
<polyline points="6.875,33.32689282782737 6.875,16.663446413913686 " style="fill:none;stroke:#ff0000;stroke-width:0.1"/>
<polyline points="13.75,32.736336174240776 13.75,16.368168087120388 " style="fill:none;stroke:#ff0000;stroke-width:0.1"/>
<polyline points="20.625,32.235502765209816 20.625,16.117751382604908 " style="fill:none;stroke:#ff0000;stroke-width:0.1"/>
<polyline points="27.5,35.284279095917015 27.5,17.642139547958507 " style="fill:none;stroke:#ff0000;stroke-width:0.1"/>
<polyline points="34.375,30.549065286902568 34.375,15.274532643451284 " style="fill:none;stroke:#ff0000;stroke-width:0.1"/>
<polyline points="41.25,33.15154231733518 41.25,16.57577115866759 " style="fill:none;stroke:#ff0000;stroke-width:0.1"/>
<polyline points="48.125,33.07414904161714 48.125,16.53707452080857 " style="fill:none;stroke:#ff0000;stroke-width:0.1"/>
<polyline points="55.0,31.921343647981494 55.0,15.960671823990747 " style="fill:none;stroke:#ff0000;stroke-width:0.1"/>
</g>
</g>
<g transform="translate(165.0,0)"
><g><polygon points="0.0,0 0.0,33.19606977397925 0.6875,33.205128205128204 1.375,33.19684388877796 2.0625,33.17048941611442 2.75,33.12570252935549 3.4375,33.06250932269682 4.125,32.98134064436654 4.8125,32.88304129035447 5.5,32.7688717367879 6.1875,32.64050232609434 6.875,32.5 7.562500000000001,32.34980785831294 8.25,32.192718015099544 8.9375,32.031838422900094 9.625,31.870554541982216 10.3125,31.712486948224452 11.0,31.56144620596676 11.6875,31.42138659146811 12.375,31.296360555747157 13.0625,31.190476190476193 13.75,31.107860452041493 14.4375,31.052631578947366 15.125000000000002,31.028885123690973 15.812499999999998,31.040699506103916 16.5,31.09216930895014 17.1875,31.187478247040755 17.875,31.33102986368126 18.5625,31.527664416792508 19.25,31.78300870189894 19.9375,32.10403889918866 20.625,32.5 21.3125,32.98395245654719 22.0,33.57548694715158 22.6875,34.30576608309963 23.375,35.22759698474373 24.0625,36.437565258877726 24.75,38.13132276419943 25.4375,40.76936946541115 26.125,45.74003388678125 26.8125,60.0 27.5,39.46069773979252 28.187499999999996,5.0 28.875,19.259966113218752 29.5625,24.23063053458885 30.250000000000004,26.868677235800565 30.9375,28.562434741122267 31.624999999999996,29.77240301525627 32.3125,30.694233916900377 33.0,31.424513052848415 33.6875,32.01604754345281 34.375,32.5 35.0625,32.89596110081135 35.75,33.21699129810105 36.4375,33.47233558320749 37.125,33.66897013631875 37.8125,33.81252175295924 38.5,33.90783069104985 39.1875,33.95930049389608 39.875,33.97111487630903 40.5625,33.94736842105263 41.25,33.89213954795851 41.9375,33.80952380952381 42.625,33.70363944425284 43.3125,33.57861340853189 44.0,33.43855379403324 44.6875,33.28751305177555 45.375,33.129445458017784 46.0625,32.9681615770999 46.75,32.807281984900456 47.4375,32.65019214168706 48.125,32.5 48.8125,32.35949767390565 49.5,32.2311282632121 50.1875,32.11695870964553 50.875,32.01865935563346 51.5625,31.93749067730318 52.25,31.874297470644507 52.9375,31.829510583885583 53.625,31.80315611122204 54.3125,31.794871794871796 55.0,31.803930226020746 55.0,0 " style="fill:none;stroke:#ff0000;stroke-width:0.1"/>
<polyline points="6.875,32.5 6.875,16.25 " style="fill:none;stroke:#ff0000;stroke-width:0.1"/>
<polyline points="13.75,31.107860452041493 13.75,15.553930226020746 " style="fill:none;stroke:#ff0000;stroke-width:0.1"/>
<polyline points="20.625,32.5 20.625,16.25 " style="fill:none;stroke:#ff0000;stroke-width:0.1"/>
<polyline points="27.5,39.46069773979252 27.5,19.73034886989626 " style="fill:none;stroke:#ff0000;stroke-width:0.1"/>
<polyline points="34.375,32.5 34.375,16.25 " style="fill:none;stroke:#ff0000;stroke-width:0.1"/>
<polyline points="41.25,33.89213954795851 41.25,16.946069773979254 " style="fill:none;stroke:#ff0000;stroke-width:0.1"/>
<polyline points="48.125,32.5 48.125,16.25 " style="fill:none;stroke:#ff0000;stroke-width:0.1"/>
<polyline points="55.0,31.803930226020746 55.0,15.901965113010373 " style="fill:none;stroke:#ff0000;stroke-width:0.1"/>
</g>
</g>
<g transform="translate(110.0,0)"
><g><polygon points="0.0,0 0.0,33.07865635201851 0.6875,33.02358083207169 1.375,32.94988371867801 2.0625,32.8585540656427 2.75,32.751145660328234 3.4375,32.62978227204319 4.125,32.49715057400667 4.8125,32.35647993198024 5.5,32.211508342479505 6.1875,32.06643386949169 6.875,31.92585095838286 7.562500000000001,31.794670984737646 8.25,31.678026307759588 8.9375,31.58115692427784 9.625,31.509278541006196 10.3125,31.46743048090965 11.0,31.460301300360804 11.6875,31.492029315154664 12.375,31.565974438825748 13.0625,31.68445689914163 13.75,31.848457682664826 14.4375,32.057275289370324 15.125000000000002,32.308134163165235 15.812499999999998,32.59574306184612 16.5,32.911808431334435 17.1875,33.24452143635163 17.875,33.57806205762171 18.5625,33.892205723445876 19.25,34.16218466558499 19.9375,34.359053584990974 20.625,34.45093471309743 21.3125,34.405644099652605 22.0,34.195250452568196 22.6875,33.80292661972608 23.375,33.23176758187823 24.0625,32.51383089092405 24.75,31.715631436300704 25.4375,30.934740282251642 26.125,30.283179069650352 26.8125,29.858939578841234 27.5,29.715720904082993 28.187499999999996,29.846152393657835 28.875,30.188381237689754 29.5625,30.65197069820799 30.250000000000004,31.14816358359283 30.9375,31.610469909917207 31.624999999999996,32.00092666288869 32.3125,32.305843229028014 33.0,32.5274415212435 33.6875,32.67601859145002 34.375,32.764497234790184 35.0625,32.80538876303143 35.75,32.80948255624706 36.4375,32.78553916368034 37.125,32.74046442964645 37.8125,32.6796552644425 38.5,32.607360700252144 39.1875,32.52699282843122 39.875,32.44136938151112 40.5625,32.352890989343294 41.25,32.26366382575923 41.9375,32.17557968912659 42.625,32.090364326509004 43.3125,32.009602835603516 44.0,31.934749037492093 44.6875,31.86712407649088 45.375,31.807908216544135 46.0625,31.758128825897767 46.75,31.71864680897758 47.4375,31.690143194624525 48.125,31.673107172172628 48.8125,31.667826542519837 49.5,31.674381292207215 50.1875,31.6926407848924 50.875,31.722264883121294 51.5625,31.762709155220293 52.25,31.813234181975474 52.9375,31.872918852341318 53.625,31.940677425086278 54.3125,32.01528003341514 55.0,32.09537622222847 55.0,0 " style="fill:none;stroke:#ff0000;stroke-width:0.1"/>
<polyline points="6.875,31.92585095838286 6.875,15.96292547919143 " style="fill:none;stroke:#ff0000;stroke-width:0.1"/>
<polyline points="13.75,31.848457682664826 13.75,15.924228841332413 " style="fill:none;stroke:#ff0000;stroke-width:0.1"/>
<polyline points="20.625,34.45093471309743 20.625,17.225467356548716 " style="fill:none;stroke:#ff0000;stroke-width:0.1"/>
<polyline points="27.5,29.715720904082993 27.5,14.857860452041496 " style="fill:none;stroke:#ff0000;stroke-width:0.1"/>
<polyline points="34.375,32.764497234790184 34.375,16.382248617395092 " style="fill:none;stroke:#ff0000;stroke-width:0.1"/>
<polyline points="41.25,32.26366382575923 41.25,16.131831912879615 " style="fill:none;stroke:#ff0000;stroke-width:0.1"/>
<polyline points="48.125,31.673107172172628 48.125,15.836553586086314 " style="fill:none;stroke:#ff0000;stroke-width:0.1"/>
<polyline points="55.0,32.09537622222847 55.0,16.047688111114233 " style="fill:none;stroke:#ff0000;stroke-width:0.1"/>
</g>
</g>
<g transform="translate(55.0,0)"
><g><polygon points="0.0,0 0.0,32.99588740140611 0.6875,32.93335640235537 1.375,32.855038522522015 2.0625,32.76244267329416 2.75,32.65758595800987 3.4375,32.54297149734725 4.125,32.42155133187464 4.8125,32.29667397144287 5.5,32.17201643978285 6.1875,32.051500974542336 6.875,31.939196892407914 7.562500000000001,31.839208522318682 8.25,31.755550555833572 8.9375,31.692012673647906 9.625,31.652015894421183 10.3125,31.63846377113043 11.0,31.6535923452309 11.6875,31.698823670344627 12.375,31.774628736358007 13.0625,31.880406746178892 13.75,32.01438887757669 14.4375,32.173575815802955 15.125000000000002,32.353719323895675 15.812499999999998,32.54935870429216 16.5,32.75392288420601 17.1875,32.95990762223691 17.875,33.15913450946135 18.5625,33.343093543357774 19.25,33.50336371983143 19.9375,33.6320962487148 20.625,33.72253312001652 21.3125,33.769521080833215 22.0,33.76996980588338 22.6875,33.72319618310101 23.375,33.63109759045424 24.0625,33.498108663328495 24.75,33.33091938784758 25.4375,33.13796543769732 26.125,32.92873898977946 26.8125,32.71300148571457 27.5,32.5 28.187499999999996,32.2977895246718 28.875,32.112743247590075 29.5625,31.949296611140607 30.250000000000004,31.809928131657323 30.9375,31.695341531675645 31.624999999999996,31.604788181639766 32.3125,31.53645979732362 33.0,31.487887280696842 33.6875,31.456297480304343 34.375,31.43889933299729 35.0625,31.433089162913266 35.75,31.43657875321316 36.4375,31.447458196346872 37.125,31.464209037361737 37.8125,31.485683189313093 38.5,31.511060986824976 39.1875,31.539798768492922 39.875,31.571573365453006 40.5625,31.60622827480227 41.25,31.64372428606562 41.9375,31.684095905525314 42.625,31.727413997929297 43.3125,31.773754519584095 44.0,31.82317293710905 44.6875,31.87568381770372 45.375,31.931245068691457 46.0625,31.989746347022848 46.75,32.051001221473655 47.4375,32.11474273246959 48.125,32.18062204675149 48.8125,32.24820994220576 49.5,32.31700088143188 50.1875,32.38641944233171 50.875,32.45582887253219 51.5625,32.5245415245464 52.25,32.591830913022896 52.9375,32.656945116850245 53.625,32.719121229621564 54.3125,32.77760054405793 55.0,32.831644141149056 55.0,0 " style="fill:none;stroke:#ff0000;stroke-width:0.1"/>
<polyline points="6.875,31.939196892407914 6.875,15.969598446203957 " style="fill:none;stroke:#ff0000;stroke-width:0.1"/>
<polyline points="13.75,32.01438887757669 13.75,16.007194438788346 " style="fill:none;stroke:#ff0000;stroke-width:0.1"/>
<polyline points="20.625,33.72253312001652 20.625,16.86126656000826 " style="fill:none;stroke:#ff0000;stroke-width:0.1"/>
<polyline points="27.5,32.5 27.5,16.25 " style="fill:none;stroke:#ff0000;stroke-width:0.1"/>
<polyline points="34.375,31.43889933299729 34.375,15.719449666498646 " style="fill:none;stroke:#ff0000;stroke-width:0.1"/>
<polyline points="41.25,31.64372428606562 41.25,15.82186214303281 " style="fill:none;stroke:#ff0000;stroke-width:0.1"/>
<polyline points="48.125,32.18062204675149 48.125,16.090311023375744 " style="fill:none;stroke:#ff0000;stroke-width:0.1"/>
<polyline points="55.0,32.831644141149056 55.0,16.415822070574528 " style="fill:none;stroke:#ff0000;stroke-width:0.1"/>
</g>
</g>
<g transform="translate(0.0,0)"
><g><polygon points="0.0,0 0.0,33.021217046755666 0.6875,32.9906830044595 1.375,32.946062684085064 2.0625,32.888072066948794 2.75,32.81780803872801 3.4375,32.7367331785526 4.125,32.646649926014334 4.8125,32.549664264569 5.5,32.44813935174291 6.1875,32.34463983238729 6.875,32.24186788537258 7.562500000000001,32.14259236996872 8.25,32.0495727479024 8.9375,31.96547975151965 9.625,31.89281503685177 10.3125,31.83383229021793 11.0,31.790462434064896 11.6875,31.76424568613941 12.375,31.75627324855284 13.0625,31.767141321879844 13.75,31.79691993657114 14.4375,31.845138754091295 15.125000000000002,31.91079150192487 15.812499999999998,31.992360065428215 16.5,32.08785847095072 17.1875,32.19489607744478 17.875,32.31075828272549 18.5625,32.432501998256015 19.25,32.557062123198094 19.9375,32.681364339849175 20.625,32.80243885280119 21.3125,32.917529296922645 22.0,33.024191025185715 22.6875,33.12037340976798 23.375,33.204481661331016 24.0625,33.27541495376255 24.75,33.33257924262974 25.4375,33.3758749439192 26.125,33.40566142005428 26.8125,33.42270181626297 27.5,33.42809303197234 28.187499999999996,33.42318637185366 28.875,33.40950463554096 29.5625,33.38866108264607 30.250000000000004,33.36228492815734 30.9375,33.33195691331956 31.624999999999996,33.29915721809475 32.3125,33.265226694424996 33.0,33.23134124337655 33.6875,33.19849823308205 34.375,33.1675132106604 35.0625,33.13902480740232 35.75,33.11350564357414 36.4375,33.09127715453029 37.125,33.07252652003788 37.8125,33.05732422091779 38.5,33.04564111685491 39.1875,33.037364294859 39.875,33.03231125163137 40.5625,33.03024223004812 41.25,33.03087072543831 41.9375,33.033872313976545 42.625,33.038892040476355 43.3125,33.045550645470044 44.0,33.05344992141906 44.6875,33.06217747426227 45.375,33.071311137034336 46.0625,33.080423243230044 46.75,33.08908492373451 47.4375,33.096870545973445 48.125,33.103362369887094 48.8125,33.10815545400708 49.5,33.11086280732911 50.1875,33.11112074942678 50.875,33.10859441266409 51.5625,33.10298329658937 52.25,33.094026765673554 52.9375,33.0815093674721 53.625,33.06526583897922 54.3125,33.04518566430944 55.0,33.021217046755666 55.0,0 " style="fill:none;stroke:#ff0000;stroke-width:0.1"/>
<polyline points="6.875,32.24186788537258 6.875,16.12093394268629 " style="fill:none;stroke:#ff0000;stroke-width:0.1"/>
<polyline points="13.75,31.79691993657114 13.75,15.89845996828557 " style="fill:none;stroke:#ff0000;stroke-width:0.1"/>
<polyline points="20.625,32.80243885280119 20.625,16.401219426400594 " style="fill:none;stroke:#ff0000;stroke-width:0.1"/>
<polyline points="27.5,33.42809303197234 27.5,16.71404651598617 " style="fill:none;stroke:#ff0000;stroke-width:0.1"/>
<polyline points="34.375,33.1675132106604 34.375,16.5837566053302 " style="fill:none;stroke:#ff0000;stroke-width:0.1"/>
<polyline points="41.25,33.03087072543831 41.25,16.515435362719156 " style="fill:none;stroke:#ff0000;stroke-width:0.1"/>
<polyline points="48.125,33.103362369887094 48.125,16.551681184943547 " style="fill:none;stroke:#ff0000;stroke-width:0.1"/>
<polyline points="55.0,33.021217046755666 55.0,16.510608523377833 " style="fill:none;stroke:#ff0000;stroke-width:0.1"/>
</g>
</g>

</g>
<g transform="translate(0,60.0)">
<g transform="translate(220.0,0)"
><g><polygon points="0.0,0 0.0,31.95935967932283 0.6875,32.00676290378915 1.375,32.064977698817515 2.0625,32.133271956619325 2.75,32.21074471519736 3.4375,32.29634669319932 4.125,32.38890424565747 4.8125,32.48714630239891 5.5,32.58973380293332 6.1875,32.69529110825478 6.875,32.80243885280119 7.562500000000001,32.90982770005303 8.25,33.01617248372618 8.9375,33.12028625332306 9.625,33.2211137969233 10.3125,33.3177642825722 11.0,33.40954273622684 11.6875,33.495980147021044 12.375,33.576862037848144 13.0625,33.652255322265674 13.75,33.72253312001652 14.4375,33.78839680706971 15.125000000000002,33.850893735817856 15.812499999999998,33.911427451174184 16.5,33.97175432130415 17.1875,34.03395547406288 17.875,34.10036456824834 18.5625,34.1734186179042 19.25,34.255379112240554 19.9375,34.34784335692234 20.625,34.45093471309743 21.3125,34.56203939150715 22.0,34.67398351676833 22.6875,34.772691951847136 23.375,34.83475486458105 24.0625,34.82604907214049 24.75,34.7035149263909 25.4375,34.42273426213845 26.125,33.952744593997686 26.8125,33.2953291211729 27.5,32.5 28.187499999999996,31.663187368365907 28.875,30.906339709844666 29.5625,30.340814653838798 30.250000000000004,30.03672866215831 30.9375,30.009703476767356 31.624999999999996,30.2274088181962 32.3125,30.62777998533448 33.0,31.1387199879026 33.6875,31.692838577406963 34.375,32.235502765209816 35.0625,32.72739203249035 35.75,33.1436438594485 36.4375,33.47140398822952 37.125,33.70696814089948 37.8125,33.85313829347271 38.5,33.91703949066988 39.1875,33.908435063758034 39.875,33.838483819682565 40.5625,33.71885283118254 41.25,33.561100667002705 41.9375,33.37625927466651 42.625,33.17455873326789 43.3125,32.96525361965342 44.0,32.75652144863087 44.6875,32.5554124954668 45.375,32.36783670884301 46.0625,32.19857790853552 46.75,32.05132852626713 47.4375,31.928740191180268 48.125,31.832486789339594 48.8125,31.763337464795498 49.5,31.72123753969045 50.1875,31.705395626845167 50.875,31.71437536989299 51.5625,31.74619032837849 52.25,31.79840056592707 52.9375,31.868209524001955 53.625,31.952559788650237 54.3125,32.048226393675264 55.0,32.15190635721309 55.0,0 " style="fill:none;stroke:#ff0000;stroke-width:0.1"/>
<polyline points="6.875,0 6.875,16.401219426400594 " style="fill:none;stroke:#ff0000;stroke-width:0.1"/>
<polyline points="13.75,0 13.75,16.86126656000826 " style="fill:none;stroke:#ff0000;stroke-width:0.1"/>
<polyline points="20.625,0 20.625,17.225467356548716 " style="fill:none;stroke:#ff0000;stroke-width:0.1"/>
<polyline points="27.5,0 27.5,16.25 " style="fill:none;stroke:#ff0000;stroke-width:0.1"/>
<polyline points="34.375,0 34.375,16.117751382604908 " style="fill:none;stroke:#ff0000;stroke-width:0.1"/>
<polyline points="41.25,0 41.25,16.780550333501353 " style="fill:none;stroke:#ff0000;stroke-width:0.1"/>
<polyline points="48.125,0 48.125,15.916243394669797 " style="fill:none;stroke:#ff0000;stroke-width:0.1"/>
<polyline points="55.0,0 55.0,16.075953178606547 " style="fill:none;stroke:#ff0000;stroke-width:0.1"/>
</g>
</g>
<g transform="translate(165.0,0)"
><g><polygon points="0.0,0 0.0,31.9731008940608 0.6875,31.928608105478734 1.375,31.88976419713353 2.0625,31.856887423383807 2.75,31.830182903967458 3.4375,31.809741500839856 4.125,31.795540684512645 4.8125,31.78744724383238 5.5,31.785221644030603 6.1875,31.788523793020982 6.875,31.79691993657114 7.562500000000001,31.80989037054657 8.25,31.826837634601187 8.9375,31.847094838629708 9.625,31.869933773879186 10.3125,31.894572478783815 11.0,31.92018197077331 11.6875,31.945891926932678 12.375,31.970795208372625 13.0625,31.993951288286766 13.75,32.01438887757669 14.4375,32.031108362322755 15.125000000000002,32.043085091696994 15.812499999999998,32.04927509546967 16.5,32.048625465619125 17.1875,32.04009237776308 17.875,32.02267047897375 18.5625,31.99543798067555 19.25,31.957622022702438 19.9375,31.908688357627195 20.625,31.848457682664826 21.3125,31.77724752610427 22.0,31.69603310061123 22.6875,31.60661295740068 23.375,31.511756287124015 24.0625,31.415299958111 24.75,31.322157541971077 25.4375,31.238203001272527 26.125,31.17000146997023 26.8125,31.124379995792122 27.5,31.107860452041493 28.187499999999996,31.126009519904624 28.875,31.182788262726408 29.5625,31.2799975455752 30.250000000000004,31.41690950963801 30.9375,31.590149172826273 31.624999999999996,31.793849820052884 32.3125,32.0200612250452 33.0,32.259351658986475 33.6875,32.50152100674643 34.375,32.736336174240776 35.0625,32.95420950710504 35.75,33.14676105641969 36.4375,33.30723005204872 37.125,33.43072449648829 37.8125,33.51431681068691 38.5,33.557006391155525 39.1875,33.5595768319769 39.875,33.5243774758185 40.5625,33.45505733682218 41.25,33.35627571393438 41.9375,33.23340915581042 42.625,33.092269678406204 43.3125,32.93884478265424 44.0,32.77906612482741 44.6875,32.61861072998751 45.375,32.46273637334336 46.0625,32.31615109308214 46.75,32.1829156289128 47.4375,32.066376792741565 48.125,31.96912927456169 48.8125,31.893003088587093 49.5,31.839073710776837 50.1875,31.807691904197636 50.875,31.79853024145866 51.5625,31.810643392353708 52.25,31.84253933611037 52.9375,31.89225877288169 53.625,31.957460143495116 54.3125,32.03550781737098 55.0,32.12356117452538 55.0,0 " style="fill:none;stroke:#ff0000;stroke-width:0.1"/>
<polyline points="6.875,0 6.875,15.89845996828557 " style="fill:none;stroke:#ff0000;stroke-width:0.1"/>
<polyline points="13.75,0 13.75,16.007194438788346 " style="fill:none;stroke:#ff0000;stroke-width:0.1"/>
<polyline points="20.625,0 20.625,15.924228841332413 " style="fill:none;stroke:#ff0000;stroke-width:0.1"/>
<polyline points="27.5,0 27.5,15.553930226020746 " style="fill:none;stroke:#ff0000;stroke-width:0.1"/>
<polyline points="34.375,0 34.375,16.368168087120388 " style="fill:none;stroke:#ff0000;stroke-width:0.1"/>
<polyline points="41.25,0 41.25,16.67813785696719 " style="fill:none;stroke:#ff0000;stroke-width:0.1"/>
<polyline points="48.125,0 48.125,15.984564637280846 " style="fill:none;stroke:#ff0000;stroke-width:0.1"/>
<polyline points="55.0,0 55.0,16.06178058726269 " style="fill:none;stroke:#ff0000;stroke-width:0.1"/>
</g>
</g>
<g transform="translate(110.0,0)"
><g><polygon points="0.0,0 0.0,32.69601324835256 0.6875,32.651590020056624 1.375,32.60583107983436 2.0625,32.5591981219153 2.75,32.51213395274233 3.4375,32.46505675547079 4.125,32.418355278664656 4.8125,32.37238502574441 5.5,32.3274655029933 6.1875,32.28387856576852 6.875,32.24186788537258 7.562500000000001,32.201639543068524 8.25,32.16336374305348 8.9375,32.127177622701865 9.625,32.093189125649396 10.3125,32.061481890588354 11.0,32.0321210948927 11.6875,32.00516017589833 12.375,31.980648331932436 13.0625,31.958638677752607 13.75,31.939196892407914 14.4375,31.922410149122378 15.125000000000002,31.908396054406133 15.812499999999998,31.897311245855814 16.5,31.889359205224203 17.1875,31.88479673800047 17.875,31.88393845910423 18.5625,31.887158516981025 19.25,31.894888701213084 19.9375,31.907612032910954 20.625,31.92585095838286 21.3125,31.950149383062968 22.0,31.981048021227643 22.6875,32.019052917651734 23.375,32.064597526603535 24.0625,32.11799939762697 24.75,32.179413276616366 25.4375,32.24878321659337 26.125,32.32579701150826 26.8125,32.409846807771416 27.5,32.5 28.187499999999996,32.59498438561337 28.875,32.69319098192002 29.5625,32.792696899008845 30.250000000000004,32.891309275738834 30.9375,32.98662964902992 31.624999999999996,33.07613640912633 32.3125,33.157281387483906 33.0,33.22759531310341 33.6875,33.284796004561734 34.375,33.32689282782737 35.0625,33.35228116502627 35.75,33.35982136093088 36.4375,33.3488977420979 37.125,33.31945470330004 37.8125,33.27200837899462 38.5,33.20763392278778 39.1875,33.12792978635285 39.875,33.03496153399253 40.5625,32.93118859791295 41.25,32.819377953248505 41.9375,32.702508979455445 42.625,32.58367380471317 43.3125,32.46597724400826 44.0,32.35244008711692 44.6875,32.24590901768544 45.375,32.14897589353999 46.0625,32.06390852993849 46.75,31.992594533503954 47.4375,31.936499159799727 48.125,31.8966376301129 48.8125,31.87356185549395 49.5,31.867361086244514 50.1875,31.877675636939202 50.875,31.903722531997165 51.5625,31.944331674038906 52.25,31.99799095459783 52.9375,32.062898601065854 53.625,32.137020981263916 54.3125,32.218154063566814 55.0,32.30398675164744 55.0,0 " style="fill:none;stroke:#ff0000;stroke-width:0.1"/>
<polyline points="6.875,0 6.875,16.12093394268629 " style="fill:none;stroke:#ff0000;stroke-width:0.1"/>
<polyline points="13.75,0 13.75,15.969598446203957 " style="fill:none;stroke:#ff0000;stroke-width:0.1"/>
<polyline points="20.625,0 20.625,15.96292547919143 " style="fill:none;stroke:#ff0000;stroke-width:0.1"/>
<polyline points="27.5,0 27.5,16.25 " style="fill:none;stroke:#ff0000;stroke-width:0.1"/>
<polyline points="34.375,0 34.375,16.663446413913686 " style="fill:none;stroke:#ff0000;stroke-width:0.1"/>
<polyline points="41.25,0 41.25,16.409688976624253 " style="fill:none;stroke:#ff0000;stroke-width:0.1"/>
<polyline points="48.125,0 48.125,15.94831881505645 " style="fill:none;stroke:#ff0000;stroke-width:0.1"/>
<polyline points="55.0,0 55.0,16.15199337582372 " style="fill:none;stroke:#ff0000;stroke-width:0.1"/>
</g>
</g>
<g transform="translate(55.0,0)"
><g><polygon points="0.0,0 0.0,31.978782953244338 0.6875,31.954814335690557 1.375,31.934734161020778 2.0625,31.918490632527902 2.75,31.905973234326446 3.4375,31.897016703410625 4.125,31.891405587335903 4.8125,31.888879250573215 5.5,31.889137192670884 6.1875,31.891844545992917 6.875,31.8966376301129 7.562500000000001,31.90312945402656 8.25,31.910915076265486 8.9375,31.919576756769956 9.625,31.928688862965668 10.3125,31.937822525737733 11.0,31.946550078580934 11.6875,31.954449354529963 12.375,31.96110795952365 13.0625,31.966127686023462 13.75,31.96912927456169 14.4375,31.96975776995188 15.125000000000002,31.967688748368627 15.812499999999998,31.962635705141 16.5,31.954358883145083 17.1875,31.942675779082208 17.875,31.92747347996212 18.5625,31.908722845469708 19.25,31.886494356425867 19.9375,31.860975192597678 20.625,31.832486789339594 21.3125,31.801501766917955 22.0,31.76865875662344 22.6875,31.734773305575004 23.375,31.700842781905248 24.0625,31.668043086680445 24.75,31.63771507184266 25.4375,31.611338917353933 26.125,31.590495364459038 26.8125,31.57681362814634 27.5,31.571906968027662 28.187499999999996,31.577298183737028 28.875,31.59433857994572 29.5625,31.6241250560808 30.250000000000004,31.667420757370255 30.9375,31.72458504623745 31.624999999999996,31.79551833866898 32.3125,31.879626590232025 33.0,31.975808974814274 33.6875,32.082470703077355 34.375,32.19756114719882 35.0625,32.31863566015082 35.75,32.442937876801906 36.4375,32.567498001743985 37.125,32.68924171727451 37.8125,32.80510392255522 38.5,32.91214152904928 39.1875,33.007639934571785 39.875,33.08920849807513 40.5625,33.154861245908705 41.25,33.203080063428864 41.9375,33.23285867812015 42.625,33.24372675144716 43.3125,33.23575431386059 44.0,33.20953756593511 44.6875,33.16616770978207 45.375,33.10718496314823 46.0625,33.034520248480355 46.75,32.95042725209759 47.4375,32.85740763003129 48.125,32.75813211462743 48.8125,32.65536016761271 49.5,32.5518606482571 50.1875,32.450335735431 50.875,32.35335007398566 51.5625,32.2632668214474 52.25,32.18219196127199 52.9375,32.111927933051206 53.625,32.05393731591492 54.3125,32.0093169955405 55.0,31.978782953244338 55.0,0 " style="fill:none;stroke:#ff0000;stroke-width:0.1"/>
<polyline points="6.875,31.8966376301129 6.875,15.94831881505645 " style="fill:none;stroke:#ff0000;stroke-width:0.1"/>
<polyline points="13.75,31.96912927456169 13.75,15.984564637280846 " style="fill:none;stroke:#ff0000;stroke-width:0.1"/>
<polyline points="20.625,31.832486789339594 20.625,15.916243394669797 " style="fill:none;stroke:#ff0000;stroke-width:0.1"/>
<polyline points="27.5,31.571906968027662 27.5,15.785953484013831 " style="fill:none;stroke:#ff0000;stroke-width:0.1"/>
<polyline points="34.375,32.19756114719882 34.375,16.09878057359941 " style="fill:none;stroke:#ff0000;stroke-width:0.1"/>
<polyline points="41.25,33.203080063428864 41.25,16.601540031714432 " style="fill:none;stroke:#ff0000;stroke-width:0.1"/>
<polyline points="48.125,32.75813211462743 48.125,16.379066057313715 " style="fill:none;stroke:#ff0000;stroke-width:0.1"/>
<polyline points="55.0,31.978782953244338 55.0,15.989391476622169 " style="fill:none;stroke:#ff0000;stroke-width:0.1"/>
</g>
</g>
<g><polygon points="0.0,0 0.0,32.168355858850944 0.6875,32.22239945594207 1.375,32.280878770378436 2.0625,32.343054883149755 2.75,32.4081690869771 3.4375,32.4754584754536 4.125,32.544171127467806 4.8125,32.61358055766829 5.5,32.68299911856812 6.1875,32.75179005779424 6.875,32.819377953248505 7.562500000000001,32.88525726753041 8.25,32.94899877852634 8.9375,33.010253652977156 9.625,33.06875493130855 10.3125,33.12431618229627 11.0,33.17682706289095 11.6875,33.2262454804159 12.375,33.27258600207071 13.0625,33.31590409447469 13.75,33.35627571393438 14.4375,33.39377172519772 15.125000000000002,33.428426634546994 15.812499999999998,33.460201231507085 16.5,33.48893901317503 17.1875,33.51431681068691 17.875,33.535790962638266 18.5625,33.55254180365313 19.25,33.563421246786845 19.9375,33.56691083708673 20.625,33.561100667002705 21.3125,33.54370251969566 22.0,33.51211271930316 22.6875,33.463540202676384 23.375,33.39521181836023 24.0625,33.30465846832436 24.75,33.19007186834268 25.4375,33.05070338885939 26.125,32.887256752409925 26.8125,32.7022104753282 27.5,32.5 28.187499999999996,32.28699851428542 28.875,32.07126101022054 29.5625,31.862034562302675 30.250000000000004,31.66908061215242 30.9375,31.50189133667151 31.624999999999996,31.368902409545754 32.3125,31.27680381689899 33.0,31.230030194116623 33.6875,31.23047891916678 34.375,31.277466879983482 35.0625,31.367903751285194 35.75,31.496636280168577 36.4375,31.65690645664222 37.125,31.840865490538643 37.8125,32.04009237776308 38.5,32.24607711579399 39.1875,32.45064129570784 39.875,32.646280676104325 40.5625,32.826424184197045 41.25,32.98561112242331 41.9375,33.11959325382111 42.625,33.225371263641996 43.3125,33.30117632965537 44.0,33.346407654769095 44.6875,33.36153622886957 45.375,33.34798410557882 46.0625,33.30798732635209 46.75,33.24444944416643 47.4375,33.160791477681315 48.125,33.06080310759208 48.8125,32.94849902545767 49.5,32.827983560217156 50.1875,32.70332602855713 50.875,32.57844866812536 51.5625,32.45702850265275 52.25,32.34241404199013 52.9375,32.23755732670584 53.625,32.14496147747799 54.3125,32.06664359764463 55.0,32.00411259859389 55.0,0 " style="fill:none;stroke:#ff0000;stroke-width:0.1"/>
<polyline points="6.875,32.819377953248505 6.875,16.409688976624253 " style="fill:none;stroke:#ff0000;stroke-width:0.1"/>
<polyline points="13.75,33.35627571393438 13.75,16.67813785696719 " style="fill:none;stroke:#ff0000;stroke-width:0.1"/>
<polyline points="20.625,33.561100667002705 20.625,16.780550333501353 " style="fill:none;stroke:#ff0000;stroke-width:0.1"/>
<polyline points="27.5,32.5 27.5,16.25 " style="fill:none;stroke:#ff0000;stroke-width:0.1"/>
<polyline points="34.375,31.277466879983482 34.375,15.638733439991741 " style="fill:none;stroke:#ff0000;stroke-width:0.1"/>
<polyline points="41.25,32.98561112242331 41.25,16.492805561211654 " style="fill:none;stroke:#ff0000;stroke-width:0.1"/>
<polyline points="48.125,33.06080310759208 48.125,16.53040155379604 " style="fill:none;stroke:#ff0000;stroke-width:0.1"/>
<polyline points="55.0,32.00411259859389 55.0,16.002056299296946 " style="fill:none;stroke:#ff0000;stroke-width:0.1"/>
</g>
</g>
<g transform="translate(0,0.0)">
<g transform="translate(165.0,0)"
><g><polygon points="0.0,0 0.0,32.69601324835256 0.6875,32.781845936433186 1.375,32.862979018736084 2.0625,32.937101398934146 2.75,33.00200904540217 3.4375,33.05566832596109 4.125,33.09627746800283 4.8125,33.122324363060805 5.5,33.132638913755486 6.1875,33.126438144506054 6.875,33.103362369887094 7.562500000000001,33.06350084020028 8.25,33.007405466496046 8.9375,32.93609147006151 9.625,32.85102410646 10.3125,32.754090982314565 11.0,32.64755991288308 11.6875,32.53402275599174 12.375,32.41632619528683 13.0625,32.297491020544555 13.75,32.18062204675149 14.4375,32.06881140208705 15.125000000000002,31.96503846600747 15.812499999999998,31.872070213647152 16.5,31.792366077212222 17.1875,31.72799162100538 17.875,31.68054529669996 18.5625,31.651102257902103 19.25,31.640178639069124 19.9375,31.647718834973727 20.625,31.673107172172628 21.3125,31.71520399543827 22.0,31.772404686896586 22.6875,31.842718612516087 23.375,31.923863590873673 24.0625,32.01337035097008 24.75,32.10869072426117 25.4375,32.207303100991155 26.125,32.306809018079974 26.8125,32.405015614386635 27.5,32.5 28.187499999999996,32.59015319222858 28.875,32.67420298849174 29.5625,32.75121678340664 30.250000000000004,32.82058672338363 30.9375,32.88200060237303 31.624999999999996,32.935402473396465 32.3125,32.980947082348266 33.0,33.01895197877236 33.6875,33.049850616937036 34.375,33.07414904161714 35.0625,33.09238796708905 35.75,33.105111298786916 36.4375,33.11284148301898 37.125,33.11606154089577 37.8125,33.115203261999525 38.5,33.11064079477579 39.1875,33.10268875414418 39.875,33.091603945593874 40.5625,33.07758985087763 41.25,33.06080310759208 41.9375,33.0413613222474 42.625,33.01935166806756 43.3125,32.99483982410167 44.0,32.9678789051073 44.6875,32.938518109411646 45.375,32.90681087435061 46.0625,32.872822377298135 46.75,32.83663625694652 47.4375,32.798360456931476 48.125,32.75813211462743 48.8125,32.71612143423148 49.5,32.67253449700671 50.1875,32.62761497425559 50.875,32.581644721335344 51.5625,32.53494324452921 52.25,32.48786604725767 52.9375,32.4408018780847 53.625,32.39416892016564 54.3125,32.34840997994338 55.0,32.30398675164744 55.0,0 " style="fill:none;stroke:#ff0000;stroke-width:0.1"/>
<polyline points="6.875,0 6.875,16.551681184943547 " style="fill:none;stroke:#ff0000;stroke-width:0.1"/>
<polyline points="13.75,0 13.75,16.090311023375744 " style="fill:none;stroke:#ff0000;stroke-width:0.1"/>
<polyline points="20.625,0 20.625,15.836553586086314 " style="fill:none;stroke:#ff0000;stroke-width:0.1"/>
<polyline points="27.5,0 27.5,16.25 " style="fill:none;stroke:#ff0000;stroke-width:0.1"/>
<polyline points="34.375,0 34.375,16.53707452080857 " style="fill:none;stroke:#ff0000;stroke-width:0.1"/>
<polyline points="41.25,0 41.25,16.53040155379604 " style="fill:none;stroke:#ff0000;stroke-width:0.1"/>
<polyline points="48.125,0 48.125,16.379066057313715 " style="fill:none;stroke:#ff0000;stroke-width:0.1"/>
<polyline points="55.0,0 55.0,16.15199337582372 " style="fill:none;stroke:#ff0000;stroke-width:0.1"/>
</g>
</g>
<g transform="translate(110.0,0)"
><g><polygon points="0.0,0 0.0,32.87643882547462 0.6875,32.96449218262902 1.375,33.04253985650489 2.0625,33.10774122711831 2.75,33.15746066388963 3.4375,33.18935660764629 4.125,33.20146975854134 4.8125,33.19230809580236 5.5,33.16092628922317 6.1875,33.10699691141291 6.875,33.03087072543831 7.562500000000001,32.933623207258435 8.25,32.8170843710872 8.9375,32.68384890691786 9.625,32.537263626656646 10.3125,32.381389270012484 11.0,32.22093387517259 11.6875,32.06115521734575 12.375,31.907730321593796 13.0625,31.76659084418958 13.75,31.64372428606562 14.4375,31.54494266317782 15.125000000000002,31.475622524181507 15.812499999999998,31.44042316802311 16.5,31.442993608844468 17.1875,31.485683189313093 17.875,31.569275503511708 18.5625,31.692769947951284 19.25,31.853238943580305 19.9375,32.045790492894966 20.625,32.26366382575923 21.3125,32.49847899325357 22.0,32.74064834101352 22.6875,32.9799387749548 23.375,33.206150179947116 24.0625,33.40985082717373 24.75,33.58309049036199 25.4375,33.7200024544248 26.125,33.817211737273595 26.8125,33.87399048009537 27.5,33.89213954795851 28.187499999999996,33.875620004207875 28.875,33.82999853002977 29.5625,33.761796998727476 30.250000000000004,33.67784245802892 30.9375,33.584700041889 31.624999999999996,33.488243712875985 32.3125,33.39338704259932 33.0,33.30396689938877 33.6875,33.22275247389574 34.375,33.15154231733518 35.0625,33.0913116423728 35.75,33.04237797729756 36.4375,33.004562019324446 37.125,32.97732952102624 37.8125,32.95990762223691 38.5,32.951374534380875 39.1875,32.95072490453033 39.875,32.956914908303006 40.5625,32.968891637677245 41.25,32.98561112242331 41.9375,33.006048711713234 42.625,33.02920479162738 43.3125,33.054108073067326 44.0,33.079818029226686 44.6875,33.105427521216185 45.375,33.13006622612082 46.0625,33.15290516137029 46.75,33.17316236539881 47.4375,33.19010962945343 48.125,33.203080063428864 48.8125,33.21147620697902 49.5,33.2147783559694 50.1875,33.212552756167625 50.875,33.204459315487355 51.5625,33.19025849916014 52.25,33.16981709603254 52.9375,33.14311257661619 53.625,33.11023580286647 54.3125,33.07139189452127 55.0,33.0268991059392 55.0,0 " style="fill:none;stroke:#ff0000;stroke-width:0.1"/>
<polyline points="6.875,0 6.875,16.515435362719156 " style="fill:none;stroke:#ff0000;stroke-width:0.1"/>
<polyline points="13.75,0 13.75,15.82186214303281 " style="fill:none;stroke:#ff0000;stroke-width:0.1"/>
<polyline points="20.625,0 20.625,16.131831912879615 " style="fill:none;stroke:#ff0000;stroke-width:0.1"/>
<polyline points="27.5,0 27.5,16.946069773979254 " style="fill:none;stroke:#ff0000;stroke-width:0.1"/>
<polyline points="34.375,0 34.375,16.57577115866759 " style="fill:none;stroke:#ff0000;stroke-width:0.1"/>
<polyline points="41.25,0 41.25,16.492805561211654 " style="fill:none;stroke:#ff0000;stroke-width:0.1"/>
<polyline points="48.125,0 48.125,16.601540031714432 " style="fill:none;stroke:#ff0000;stroke-width:0.1"/>
<polyline points="55.0,0 55.0,16.5134495529696 " style="fill:none;stroke:#ff0000;stroke-width:0.1"/>
</g>
</g>
<g transform="translate(55.0,0)"
><g><polygon points="0.0,0 0.0,32.84809364278691 0.6875,32.951773606324736 1.375,33.047440211349766 2.0625,33.131790475998045 2.75,33.20159943407292 3.4375,33.25380967162151 4.125,33.285624630107016 4.8125,33.294604373154826 5.5,33.278762460309544 6.1875,33.2366625352045 6.875,33.1675132106604 7.562500000000001,33.07125980881974 8.25,32.94867147373287 8.9375,32.80142209146448 9.625,32.63216329115699 10.3125,32.4445875045332 11.0,32.24347855136913 11.6875,32.03474638034658 12.375,31.825441266732103 13.0625,31.623740725333498 13.75,31.43889933299729 14.4375,31.281147168817462 15.125000000000002,31.161516180317438 15.812499999999998,31.091564936241966 16.5,31.082960509330125 17.1875,31.146861706527282 17.875,31.29303185910052 18.5625,31.528596011770485 19.25,31.856356140551497 19.9375,32.27260796750964 20.625,32.764497234790184 21.3125,33.30716142259304 22.0,33.861280012097396 22.6875,34.37222001466553 23.375,34.772591181803804 24.0625,34.990296523232644 24.75,34.96327133784169 25.4375,34.65918534616121 26.125,34.093660290155334 26.8125,33.33681263163409 27.5,32.5 28.187499999999996,31.704670878827102 28.875,31.047255406002314 29.5625,30.57726573786155 30.250000000000004,30.296485073609094 30.9375,30.173950927859508 31.624999999999996,30.16524513541895 32.3125,30.22730804815287 33.0,30.32601648323167 33.6875,30.43796060849285 34.375,30.549065286902568 35.0625,30.65215664307766 35.75,30.744620887759446 36.4375,30.826581382095803 37.125,30.899635431751662 37.8125,30.966044525937125 38.5,31.028245678695846 39.1875,31.08857254882582 39.875,31.149106264182137 40.5625,31.211603192930287 41.25,31.277466879983482 41.9375,31.347744677734333 42.625,31.42313796215186 43.3125,31.504019852978956 44.0,31.59045726377316 44.6875,31.682235717427805 45.375,31.778886203076706 46.0625,31.87971374667694 46.75,31.98382751627382 47.4375,32.09017229994698 48.125,32.19756114719882 48.8125,32.30470889174522 49.5,32.41026619706668 50.1875,32.51285369760109 50.875,32.61109575434253 51.5625,32.70365330680069 52.25,32.78925528480264 52.9375,32.86672804338067 53.625,32.935022301182485 54.3125,32.99323709621085 55.0,33.04064032067717 55.0,0 " style="fill:none;stroke:#ff0000;stroke-width:0.1"/>
<polyline points="6.875,0 6.875,16.5837566053302 " style="fill:none;stroke:#ff0000;stroke-width:0.1"/>
<polyline points="13.75,0 13.75,15.719449666498646 " style="fill:none;stroke:#ff0000;stroke-width:0.1"/>
<polyline points="20.625,0 20.625,16.382248617395092 " style="fill:none;stroke:#ff0000;stroke-width:0.1"/>
<polyline points="27.5,0 27.5,16.25 " style="fill:none;stroke:#ff0000;stroke-width:0.1"/>
<polyline points="34.375,0 34.375,15.274532643451284 " style="fill:none;stroke:#ff0000;stroke-width:0.1"/>
<polyline points="41.25,0 41.25,15.638733439991741 " style="fill:none;stroke:#ff0000;stroke-width:0.1"/>
<polyline points="48.125,0 48.125,16.09878057359941 " style="fill:none;stroke:#ff0000;stroke-width:0.1"/>
<polyline points="55.0,0 55.0,16.520320160338585 " style="fill:none;stroke:#ff0000;stroke-width:0.1"/>
</g>
</g>
<g><polygon points="0.0,0 0.0,32.5 0.6875,32.61168133612628 1.375,32.7264183046635 2.0625,32.841631421126955 2.75,32.95459949745729 3.4375,33.06250932269682 4.125,33.162508560494054 4.8125,33.25176086049193 5.5,33.32750211792383 6.1875,33.38709677419355 6.875,33.42809303197234 7.562500000000001,33.44827586206897 8.25,33.44571670619867 8.9375,33.418818829490135 9.625,33.36635734833837 10.3125,33.28751305177555 11.0,33.181899246185935 11.6875,33.04958098181293 12.375,32.89108616260057 13.0625,32.707408195663085 13.75,32.5 14.4375,32.27075936268817 15.125000000000002,32.02200580126596 15.812499999999998,31.756449259900158 16.5,31.4771511307211 17.1875,31.187478247040755 17.875,30.89105063880016 18.5625,30.591683969520506 19.25,30.29332768553646 19.9375,30.0 20.625,29.715720904082993 21.3125,29.444444444444443 22.0,29.189991528304688 22.6875,28.955984514823797 23.375,28.745784823867044 24.0625,28.562434741122267 24.75,28.408604522884406 25.4375,28.28654580610089 26.125,28.19805221139366 26.8125,28.14442789107524 27.5,39.46069773979252 28.187499999999996,36.855572108924754 28.875,36.801947788606356 29.5625,36.713454193899125 30.250000000000004,36.5913954771156 30.9375,36.437565258877726 31.624999999999996,36.25421517613296 32.3125,36.0440154851762 33.0,35.81000847169531 33.6875,35.55555555555556 34.375,35.284279095917015 35.0625,35.0 35.75,34.706672314463546 36.4375,34.4083160304795 37.125,34.10894936119984 37.8125,33.81252175295924 38.5,33.522848869278896 39.1875,33.24355074009985 39.875,32.97799419873404 40.5625,32.72924063731183 41.25,32.5 41.9375,32.292591804336915 42.625,32.10891383739943 43.3125,31.95041901818707 44.0,31.818100753814065 44.6875,31.712486948224452 45.375,31.633642651661624 46.0625,31.581181170509872 46.75,31.55428329380134 47.4375,31.551724137931036 48.125,31.571906968027662 48.8125,31.612903225806452 49.5,31.672497882076172 50.1875,31.74823913950808 50.875,31.837491439505946 51.5625,31.93749067730318 52.25,32.045400502542705 52.9375,32.15836857887304 53.625,32.27358169533651 54.3125,32.388318663873726 55.0,32.5 55.0,0 " style="fill:none;stroke:#ff0000;stroke-width:0.1"/>
<polyline points="6.875,0 6.875,16.71404651598617 " style="fill:none;stroke:#ff0000;stroke-width:0.1"/>
<polyline points="13.75,0 13.75,16.25 " style="fill:none;stroke:#ff0000;stroke-width:0.1"/>
<polyline points="20.625,0 20.625,14.857860452041496 " style="fill:none;stroke:#ff0000;stroke-width:0.1"/>
<polyline points="27.5,0 27.5,19.73034886989626 " style="fill:none;stroke:#ff0000;stroke-width:0.1"/>
<polyline points="34.375,0 34.375,17.642139547958507 " style="fill:none;stroke:#ff0000;stroke-width:0.1"/>
<polyline points="41.25,0 41.25,16.25 " style="fill:none;stroke:#ff0000;stroke-width:0.1"/>
<polyline points="48.125,0 48.125,15.785953484013831 " style="fill:none;stroke:#ff0000;stroke-width:0.1"/>
<polyline points="55.0,0 55.0,16.25 " style="fill:none;stroke:#ff0000;stroke-width:0.1"/>
</g>
</g>

</g>
</svg>
