<?xml version="1.0" encoding="UTF-8" standalone="no"?>
<svg width="297.0mm" height="210.0mm" viewBox="0 0 297.0 210.0" >
<g transform="translate(11.0,15.0)">
<g transform="translate(0,120.0)">
<g transform="translate(220.0,0)"
><g><polygon points="0.0,0 0.0,50.93984090349766 0.6875,51.30550751186367 1.375,51.682597260469535 2.0625,52.07128505993549 2.75,52.47167714226181 3.4375,52.883789348234735 4.125,53.30751984721128 4.8125,53.74261486431745 5.5,54.18862561299019 6.1875,54.64485415121442 6.875,55.11028527020392 7.562500000000001,55.583500750563445 8.25,56.06257134173736 8.9375,56.54492058697903 9.625,57.027153073397216 10.3125,57.50483777866854 11.0,57.97223486572601 11.6875,58.42195152784642 12.375,58.84450936492812 13.0625,59.22780248160007 13.75,59.556422527747465 14.4375,59.81082526149211 15.125000000000002,59.966314834112254 15.812499999999998,59.99183038441744 16.5,59.84854080859105 17.1875,59.48829800865057 17.875,58.852082971994164 18.5625,57.86872747513079 19.25,56.45444085629795 19.9375,54.514054219811435 20.625,51.94543648263006 21.3125,48.64919464153029 22.0,44.54632980421258 22.6875,39.60642454544198 23.375,33.88712090924086 24.0625,27.58065044950046 24.75,21.054123552017924 25.4375,14.85930029741778 26.125,9.682641969499738 26.8125,6.220181139751023 27.5,5.0 28.187499999999996,6.220181139751026 28.875,9.682641969499745 29.5625,14.859300297417787 30.250000000000004,21.054123552017927 30.9375,27.58065044950047 31.624999999999996,33.88712090924088 32.3125,39.60642454544202 33.0,44.546329804212604 33.6875,48.64919464153028 34.375,51.94543648263006 35.0625,54.51405421981145 35.75,56.45444085629795 36.4375,57.86872747513078 37.125,58.852082971994164 37.8125,59.488298008650574 38.5,59.84854080859105 39.1875,59.99183038441744 39.875,59.966314834112254 40.5625,59.810825261492106 41.25,59.55642252774745 41.9375,59.227802481600065 42.625,58.844509364928115 43.3125,58.42195152784642 44.0,57.972234865725994 44.6875,57.50483777866854 45.375,57.027153073397216 46.0625,56.544920586979025 46.75,56.062571341737346 47.4375,55.583500750563445 48.125,55.11028527020391 48.8125,54.644854151214425 49.5,54.18862561299015 50.1875,53.74261486431743 50.875,53.30751984721129 51.5625,52.8837893482347 52.25,52.471677142261804 52.9375,52.07128505993547 53.625,51.68259726046952 54.3125,51.30550751186364 55.0,50.939840903497675 55.0,0 " style="fill:none;stroke:#ff0000;stroke-width:0.1"/>
<polyline points="6.875,55.11028527020392 6.875,27.55514263510196 " style="fill:none;stroke:#ff0000;stroke-width:0.1"/>
<polyline points="13.75,59.556422527747465 13.75,29.778211263873732 " style="fill:none;stroke:#ff0000;stroke-width:0.1"/>
<polyline points="20.625,51.94543648263006 20.625,25.97271824131503 " style="fill:none;stroke:#ff0000;stroke-width:0.1"/>
<polyline points="27.5,5.0 27.5,2.5 " style="fill:none;stroke:#ff0000;stroke-width:0.1"/>
<polyline points="34.375,51.94543648263006 34.375,25.97271824131503 " style="fill:none;stroke:#ff0000;stroke-width:0.1"/>
<polyline points="41.25,59.55642252774745 41.25,29.778211263873725 " style="fill:none;stroke:#ff0000;stroke-width:0.1"/>
<polyline points="48.125,55.11028527020391 48.125,27.555142635101955 " style="fill:none;stroke:#ff0000;stroke-width:0.1"/>
<polyline points="55.0,50.939840903497675 55.0,25.469920451748838 " style="fill:none;stroke:#ff0000;stroke-width:0.1"/>
</g>
</g>
<g transform="translate(165.0,0)"
><g><polygon points="0.0,0 0.0,32.500000000000014 0.6875,32.500000000000014 1.375,32.500000000000014 2.0625,32.500000000000014 2.75,32.500000000000014 3.4375,32.500000000000014 4.125,32.500000000000014 4.8125,32.500000000000014 5.5,32.500000000000014 6.1875,32.500000000000014 6.875,32.500000000000014 7.562500000000001,32.500000000000014 8.25,32.500000000000014 8.9375,32.500000000000014 9.625,32.500000000000014 10.3125,32.500000000000014 11.0,32.500000000000014 11.6875,32.500000000000014 12.375,32.500000000000014 13.0625,32.500000000000014 13.75,32.500000000000014 14.4375,32.500000000000014 15.125000000000002,32.500000000000014 15.812499999999998,32.500000000000014 16.5,32.500000000000014 17.1875,32.500000000000014 17.875,32.500000000000014 18.5625,32.500000000000014 19.25,32.500000000000014 19.9375,32.500000000000014 20.625,32.500000000000014 21.3125,32.500000000000014 22.0,32.500000000000014 22.6875,32.500000000000014 23.375,32.500000000000014 24.0625,32.500000000000014 24.75,32.500000000000014 25.4375,32.500000000000014 26.125,32.500000000000014 26.8125,32.500000000000014 27.5,32.5 28.187499999999996,32.5 28.875,32.5 29.5625,32.5 30.250000000000004,32.5 30.9375,32.5 31.624999999999996,32.5 32.3125,32.5 33.0,32.5 33.6875,32.5 34.375,32.5 35.0625,32.5 35.75,32.5 36.4375,32.5 37.125,32.5 37.8125,32.5 38.5,32.5 39.1875,32.5 39.875,32.5 40.5625,32.5 41.25,32.5 41.9375,32.5 42.625,32.5 43.3125,32.5 44.0,32.5 44.6875,32.5 45.375,32.5 46.0625,32.5 46.75,32.5 47.4375,32.5 48.125,32.5 48.8125,32.5 49.5,32.5 50.1875,32.5 50.875,32.5 51.5625,32.5 52.25,32.5 52.9375,32.5 53.625,32.5 54.3125,32.5 55.0,32.5 55.0,0 " style="fill:none;stroke:#ff0000;stroke-width:0.1"/>
<polyline points="6.875,32.500000000000014 6.875,16.250000000000007 " style="fill:none;stroke:#ff0000;stroke-width:0.1"/>
<polyline points="13.75,32.500000000000014 13.75,16.250000000000007 " style="fill:none;stroke:#ff0000;stroke-width:0.1"/>
<polyline points="20.625,32.500000000000014 20.625,16.250000000000007 " style="fill:none;stroke:#ff0000;stroke-width:0.1"/>
<polyline points="27.5,32.5 27.5,16.25 " style="fill:none;stroke:#ff0000;stroke-width:0.1"/>
<polyline points="34.375,32.5 34.375,16.25 " style="fill:none;stroke:#ff0000;stroke-width:0.1"/>
<polyline points="41.25,32.5 41.25,16.25 " style="fill:none;stroke:#ff0000;stroke-width:0.1"/>
<polyline points="48.125,32.5 48.125,16.25 " style="fill:none;stroke:#ff0000;stroke-width:0.1"/>
<polyline points="55.0,32.5 55.0,16.25 " style="fill:none;stroke:#ff0000;stroke-width:0.1"/>
</g>
</g>
<g transform="translate(110.0,0)"
><g><polygon points="0.0,0 0.0,14.060159096502337 0.6875,13.694492488136335 1.375,13.317402739530467 2.0625,12.928714940064507 2.75,12.528322857738196 3.4375,12.116210651765272 4.125,11.692480152788718 4.8125,11.257385135682549 5.5,10.811374387009815 6.1875,10.355145848785586 6.875,9.889714729796083 7.562500000000001,9.416499249436555 8.25,8.937428658262636 8.9375,8.455079413020963 9.625,7.972846926602788 10.3125,7.4951622213314595 11.0,7.02776513427399 11.6875,6.578048472153576 12.375,6.155490635071882 13.0625,5.772197518399926 13.75,5.443577472252537 14.4375,5.189174738507887 15.125000000000002,5.03368516588774 15.812499999999998,5.008169615582561 16.5,5.151459191408945 17.1875,5.5117019913494305 17.875,6.147917028005834 18.5625,7.131272524869209 19.25,8.54555914370205 19.9375,10.485945780188565 20.625,13.054563517369948 21.3125,16.350805358469707 22.0,20.45367019578742 22.6875,25.393575454558015 23.375,31.112879090759133 24.0625,37.41934955049954 24.75,43.94587644798208 25.4375,50.14069970258222 26.125,55.31735803050026 26.8125,58.77981886024898 27.5,60.0 28.187499999999996,58.77981886024898 28.875,55.31735803050026 29.5625,50.14069970258221 30.250000000000004,43.94587644798207 30.9375,37.41934955049953 31.624999999999996,31.112879090759126 32.3125,25.393575454557986 33.0,20.45367019578739 33.6875,16.35080535846972 34.375,13.054563517369942 35.0625,10.485945780188555 35.75,8.545559143702047 36.4375,7.131272524869214 37.125,6.147917028005834 37.8125,5.511701991349428 38.5,5.151459191408942 39.1875,5.008169615582561 39.875,5.03368516588774 40.5625,5.189174738507891 41.25,5.443577472252546 41.9375,5.772197518399932 42.625,6.155490635071884 43.3125,6.578048472153583 44.0,7.0277651342740075 44.6875,7.495162221331466 45.375,7.972846926602784 46.0625,8.455079413020972 46.75,8.937428658262652 47.4375,9.416499249436555 48.125,9.889714729796086 48.8125,10.355145848785575 49.5,10.811374387009845 50.1875,11.25738513568257 50.875,11.692480152788715 51.5625,12.116210651765298 52.25,12.528322857738198 52.9375,12.928714940064534 53.625,13.317402739530477 54.3125,13.69449248813636 55.0,14.060159096502332 55.0,0 " style="fill:none;stroke:#ff0000;stroke-width:0.1"/>
<polyline points="6.875,9.889714729796083 6.875,4.944857364898041 " style="fill:none;stroke:#ff0000;stroke-width:0.1"/>
<polyline points="13.75,5.443577472252537 13.75,2.7217887361262685 " style="fill:none;stroke:#ff0000;stroke-width:0.1"/>
<polyline points="20.625,13.054563517369948 20.625,6.527281758684974 " style="fill:none;stroke:#ff0000;stroke-width:0.1"/>
<polyline points="27.5,60.0 27.5,30.0 " style="fill:none;stroke:#ff0000;stroke-width:0.1"/>
<polyline points="34.375,13.054563517369942 34.375,6.527281758684971 " style="fill:none;stroke:#ff0000;stroke-width:0.1"/>
<polyline points="41.25,5.443577472252546 41.25,2.721788736126273 " style="fill:none;stroke:#ff0000;stroke-width:0.1"/>
<polyline points="48.125,9.889714729796086 48.125,4.944857364898043 " style="fill:none;stroke:#ff0000;stroke-width:0.1"/>
<polyline points="55.0,14.060159096502332 55.0,7.030079548251166 " style="fill:none;stroke:#ff0000;stroke-width:0.1"/>
</g>
</g>
<g transform="translate(55.0,0)"
><g><polygon points="0.0,0 0.0,5.443577472252537 0.6875,5.30568942819334 1.375,5.189174738507887 2.0625,5.0972892731473465 2.75,5.03368516588774 3.4375,5.002453454915479 4.125,5.008169615582561 4.8125,5.05594153721324 5.5,5.151459191408945 6.1875,5.301044828341611 6.875,5.5117019913494305 7.562500000000001,5.791160924893515 8.25,6.147917028005834 8.9375,6.591257832927099 9.625,7.131272524869209 10.3125,7.7788362278767655 11.0,8.54555914370205 11.6875,9.443688157231058 12.375,10.485945780188565 13.0625,11.685288449710944 13.75,13.054563517369948 14.4375,14.60604223194864 15.125000000000002,16.350805358469707 15.812499999999998,18.297959813750566 16.5,20.45367019578742 17.1875,22.820000000000014 17.875,25.393575454558015 18.5625,28.164111878796792 19.25,31.112879090759133 19.9375,34.211227806292676 20.625,37.41934955049954 21.3125,40.685490849466795 22.0,43.94587644798208 22.6875,47.12560025482532 23.375,50.14069970258222 24.0625,52.90152610599743 24.75,55.31735803050026 25.4375,57.30199178373243 26.125,58.77981886024898 26.8125,59.691717355857534 27.5,60.0 28.187499999999996,59.691717355857534 28.875,58.77981886024898 29.5625,57.301991783732426 30.250000000000004,55.31735803050026 30.9375,52.90152610599743 31.624999999999996,50.14069970258221 32.3125,47.125600254825315 33.0,43.94587644798207 33.6875,40.68549084946678 34.375,37.41934955049953 35.0625,34.211227806292676 35.75,31.112879090759126 36.4375,28.164111878796792 37.125,25.393575454557986 37.8125,22.819999999999993 38.5,20.45367019578739 39.1875,18.297959813750577 39.875,16.35080535846972 40.5625,14.606042231948653 41.25,13.054563517369942 41.9375,11.685288449710928 42.625,10.485945780188555 43.3125,9.443688157231053 44.0,8.545559143702047 44.6875,7.77883622787675 45.375,7.131272524869214 46.0625,6.591257832927097 46.75,6.147917028005834 47.4375,5.791160924893512 48.125,5.511701991349428 48.8125,5.301044828341609 49.5,5.151459191408942 50.1875,5.055941537213236 50.875,5.008169615582561 51.5625,5.002453454915479 52.25,5.03368516588774 52.9375,5.097289273147349 53.625,5.189174738507891 54.3125,5.305689428193337 55.0,5.443577472252546 55.0,0 " style="fill:none;stroke:#ff0000;stroke-width:0.1"/>
<polyline points="6.875,5.5117019913494305 6.875,2.7558509956747153 " style="fill:none;stroke:#ff0000;stroke-width:0.1"/>
<polyline points="13.75,13.054563517369948 13.75,6.527281758684974 " style="fill:none;stroke:#ff0000;stroke-width:0.1"/>
<polyline points="20.625,37.41934955049954 20.625,18.70967477524977 " style="fill:none;stroke:#ff0000;stroke-width:0.1"/>
<polyline points="27.5,60.0 27.5,30.0 " style="fill:none;stroke:#ff0000;stroke-width:0.1"/>
<polyline points="34.375,37.41934955049953 34.375,18.709674775249766 " style="fill:none;stroke:#ff0000;stroke-width:0.1"/>
<polyline points="41.25,13.054563517369942 41.25,6.527281758684971 " style="fill:none;stroke:#ff0000;stroke-width:0.1"/>
<polyline points="48.125,5.511701991349428 48.125,2.755850995674714 " style="fill:none;stroke:#ff0000;stroke-width:0.1"/>
<polyline points="55.0,5.443577472252546 55.0,2.721788736126273 " style="fill:none;stroke:#ff0000;stroke-width:0.1"/>
</g>
</g>
<g transform="translate(0.0,0)"
><g><polygon points="0.0,0 0.0,6.759999999999998 0.6875,7.131272524869209 1.375,7.550329370269645 2.0625,8.020577691466118 2.75,8.54555914370205 3.4375,9.128933323831259 4.125,9.77445524753254 4.8125,10.485945780188565 5.5,11.267253831558296 6.1875,12.12220902954363 6.875,13.054563517369948 7.562500000000001,14.067921485346371 8.25,15.165655070702044 8.9375,16.350805358469707 9.625,17.625967418692806 10.3125,18.9931586497019 11.0,20.45367019578742 11.6875,22.007901902933856 12.375,23.65518219863467 13.0625,25.393575454558015 13.75,27.21968082439446 14.4375,29.128428233365053 15.125000000000002,31.112879090759133 15.812499999999998,33.164041323513544 16.5,35.270710360268666 17.1875,37.41934955049954 17.875,39.59402494631328 18.5625,41.77641012211132 19.25,43.94587644798208 19.9375,46.079682659016164 20.625,48.15327441783349 21.3125,50.14069970258222 22.0,52.01513928841936 22.6875,53.74954357294858 23.375,55.31735803050026 24.0625,56.69331042912624 24.75,57.85422457750451 25.4375,58.77981886024898 26.125,59.4534441978522 26.8125,59.86271614085271 27.5,60.0 28.187499999999996,59.86271614085271 28.875,59.4534441978522 29.5625,58.77981886024898 30.250000000000004,57.8542245775045 30.9375,56.693310429126235 31.624999999999996,55.31735803050026 32.3125,53.74954357294857 33.0,52.015139288419356 33.6875,50.14069970258221 34.375,48.15327441783347 35.0625,46.07968265901615 35.75,43.94587644798207 36.4375,41.77641012211132 37.125,39.5940249463133 37.8125,37.41934955049953 38.5,35.27071036026868 39.1875,33.16404132351356 39.875,31.112879090759126 40.5625,29.128428233365057 41.25,27.219680824394448 41.9375,25.393575454557986 42.625,23.655182198634673 43.3125,22.007901902933856 44.0,20.45367019578739 44.6875,18.99315864970187 45.375,17.625967418692795 46.0625,16.35080535846972 46.75,15.165655070702044 47.4375,14.067921485346362 48.125,13.054563517369942 48.8125,12.122209029543637 49.5,11.267253831558305 50.1875,10.485945780188555 50.875,9.77445524753255 51.5625,9.128933323831244 52.25,8.545559143702047 52.9375,8.020577691466123 53.625,7.550329370269633 54.3125,7.131272524869214 55.0,6.760000000000002 55.0,0 " style="fill:none;stroke:#ff0000;stroke-width:0.1"/>
<polyline points="6.875,13.054563517369948 6.875,6.527281758684974 " style="fill:none;stroke:#ff0000;stroke-width:0.1"/>
<polyline points="13.75,27.21968082439446 13.75,13.60984041219723 " style="fill:none;stroke:#ff0000;stroke-width:0.1"/>
<polyline points="20.625,48.15327441783349 20.625,24.076637208916743 " style="fill:none;stroke:#ff0000;stroke-width:0.1"/>
<polyline points="27.5,60.0 27.5,30.0 " style="fill:none;stroke:#ff0000;stroke-width:0.1"/>
<polyline points="34.375,48.15327441783347 34.375,24.076637208916736 " style="fill:none;stroke:#ff0000;stroke-width:0.1"/>
<polyline points="41.25,27.219680824394448 41.25,13.609840412197224 " style="fill:none;stroke:#ff0000;stroke-width:0.1"/>
<polyline points="48.125,13.054563517369942 48.125,6.527281758684971 " style="fill:none;stroke:#ff0000;stroke-width:0.1"/>
<polyline points="55.0,6.760000000000002 55.0,3.380000000000001 " style="fill:none;stroke:#ff0000;stroke-width:0.1"/>
</g>
</g>

</g>
<g transform="translate(0,60.0)">
<g transform="translate(220.0,0)"
><g><polygon points="0.0,0 0.0,52.90152610599743 0.6875,52.56496666384572 1.375,52.204770040338644 2.0625,51.818768105206594 2.75,51.40455268249576 3.4375,50.959445598576195 4.125,50.48046489409851 4.8125,49.96428680840648 5.5,49.40720316964186 6.1875,48.80507389193441 6.875,48.15327441783349 7.562500000000001,47.44663818718902 8.25,46.679394619148525 8.9375,45.8451037450397 9.625,44.93658964966449 10.3125,43.94587644798208 11.0,42.864132908511614 11.6875,41.68163542011885 12.375,40.387764342398604 13.0625,38.971056676043965 13.75,37.41934955049954 14.4375,35.720065765825964 15.125000000000002,33.86071651471751 15.812499999999998,31.829729819832355 16.5,29.617758573465846 17.1875,27.21968082439446 17.875,24.637575244421424 18.5625,21.885026316917045 19.25,18.9931586497019 19.9375,16.01875560501568 20.625,13.054563517369948 21.3125,10.241214938142537 22.0,7.7788362278767655 22.6875,5.934068241826348 23.375,5.03500599703057 24.0625,5.443577472252537 24.75,7.4951622213314595 25.4375,11.403656383076319 26.125,17.1501409612998 26.8125,24.399313567820144 27.5,32.500000000000014 28.187499999999996,40.600686432179856 28.875,47.8498590387002 29.5625,53.596343616923676 30.250000000000004,57.50483777866854 30.9375,59.556422527747465 31.624999999999996,59.96499400296943 32.3125,59.065931758173654 33.0,57.221163772123234 33.6875,54.75878506185746 34.375,51.94543648263006 35.0625,48.981244394984316 35.75,46.006841350298096 36.4375,43.11497368308296 37.125,40.36242475557857 37.8125,37.78031917560554 38.5,35.38224142653415 39.1875,33.17027018016765 39.875,31.139283485282498 40.5625,29.27993423417403 41.25,27.58065044950046 41.9375,26.02894332395603 42.625,24.6122356576014 43.3125,23.31836457988115 44.0,22.135867091488386 44.6875,21.054123552017924 45.375,20.06341035033551 46.0625,19.1548962549603 46.75,18.320605380851475 47.4375,17.553361812810977 48.125,16.846725582166513 48.8125,16.19492610806558 49.5,15.59279683035814 50.1875,15.035713191593528 50.875,14.51953510590149 51.5625,14.040554401423803 52.25,13.595447317504238 52.9375,13.181231894793408 53.625,12.79522995966136 54.3125,12.435033336154271 55.0,12.098473894002563 55.0,0 " style="fill:none;stroke:#ff0000;stroke-width:0.1"/>
<polyline points="6.875,0 6.875,24.076637208916743 " style="fill:none;stroke:#ff0000;stroke-width:0.1"/>
<polyline points="13.75,0 13.75,18.70967477524977 " style="fill:none;stroke:#ff0000;stroke-width:0.1"/>
<polyline points="20.625,0 20.625,6.527281758684974 " style="fill:none;stroke:#ff0000;stroke-width:0.1"/>
<polyline points="27.5,0 27.5,16.250000000000007 " style="fill:none;stroke:#ff0000;stroke-width:0.1"/>
<polyline points="34.375,0 34.375,25.97271824131503 " style="fill:none;stroke:#ff0000;stroke-width:0.1"/>
<polyline points="41.25,0 41.25,13.79032522475023 " style="fill:none;stroke:#ff0000;stroke-width:0.1"/>
<polyline points="48.125,0 48.125,8.423362791083257 " style="fill:none;stroke:#ff0000;stroke-width:0.1"/>
<polyline points="55.0,0 55.0,6.0492369470012815 " style="fill:none;stroke:#ff0000;stroke-width:0.1"/>
</g>
</g>
<g transform="translate(165.0,0)"
><g><polygon points="0.0,0 0.0,37.41934955049954 0.6875,36.588945160322474 1.375,35.720065765825964 2.0625,34.811156597990404 2.75,33.86071651471751 3.4375,32.867333637052695 4.125,31.829729819832355 4.8125,30.74681572812721 5.5,29.617758573465846 6.1875,28.442064863737066 6.875,27.21968082439446 7.562500000000001,25.95111343356256 8.25,24.637575244421424 8.9375,23.281156291587415 9.625,21.885026316917045 10.3125,20.45367019578742 11.0,18.9931586497019 11.6875,17.511454900191538 12.375,16.01875560501568 13.0625,14.527860920906969 13.75,13.054563517369948 14.4375,11.61803947434068 15.125000000000002,10.241214938142537 15.812499999999998,8.951071053057301 16.5,7.7788362278767655 17.1875,6.759999999999998 17.875,5.934068241826348 18.5625,5.343967996034309 19.25,5.03500599703057 19.9375,5.053293469070449 20.625,5.443577472252537 21.3125,6.246471864656056 22.0,7.4951622213314595 22.6875,9.211766550765303 23.375,11.403656383076319 24.0625,14.060159096502337 24.75,17.1501409612998 25.4375,20.62097632127668 26.125,24.399313567820144 26.8125,28.393845200293015 27.5,32.500000000000014 28.187499999999996,36.606154799706985 28.875,40.600686432179856 29.5625,44.37902367872332 30.250000000000004,47.8498590387002 30.9375,50.93984090349766 31.624999999999996,53.596343616923676 32.3125,55.788233449234696 33.0,57.50483777866854 33.6875,58.75352813534395 34.375,59.556422527747465 35.0625,59.946706530929546 35.75,59.96499400296943 36.4375,59.656032003965684 37.125,59.065931758173654 37.8125,58.239999999999995 38.5,57.221163772123234 39.1875,56.048928946942695 39.875,54.75878506185746 40.5625,53.38196052565932 41.25,51.94543648263006 41.9375,50.472139079093026 42.625,48.981244394984316 43.3125,47.488545099808455 44.0,46.006841350298096 44.6875,44.54632980421258 45.375,43.11497368308296 46.0625,41.718843708412585 46.75,40.36242475557857 47.4375,39.04888656643744 48.125,37.78031917560554 48.8125,36.557935136262934 49.5,35.38224142653415 50.1875,34.2531842718728 50.875,33.17027018016765 51.5625,32.132666362947305 52.25,31.139283485282498 52.9375,30.188843402009592 53.625,29.27993423417403 54.3125,28.411054839677526 55.0,27.58065044950046 55.0,0 " style="fill:none;stroke:#ff0000;stroke-width:0.1"/>
<polyline points="6.875,0 6.875,13.60984041219723 " style="fill:none;stroke:#ff0000;stroke-width:0.1"/>
<polyline points="13.75,0 13.75,6.527281758684974 " style="fill:none;stroke:#ff0000;stroke-width:0.1"/>
<polyline points="20.625,0 20.625,2.7217887361262685 " style="fill:none;stroke:#ff0000;stroke-width:0.1"/>
<polyline points="27.5,0 27.5,16.250000000000007 " style="fill:none;stroke:#ff0000;stroke-width:0.1"/>
<polyline points="34.375,0 34.375,29.778211263873732 " style="fill:none;stroke:#ff0000;stroke-width:0.1"/>
<polyline points="41.25,0 41.25,25.97271824131503 " style="fill:none;stroke:#ff0000;stroke-width:0.1"/>
<polyline points="48.125,0 48.125,18.89015958780277 " style="fill:none;stroke:#ff0000;stroke-width:0.1"/>
<polyline points="55.0,0 55.0,13.79032522475023 " style="fill:none;stroke:#ff0000;stroke-width:0.1"/>
</g>
</g>
<g transform="translate(110.0,0)"
><g><polygon points="0.0,0 0.0,22.820000000000014 0.6875,21.885026316917045 1.375,20.93436402665335 2.0625,19.96972133428577 2.75,18.9931586497019 3.4375,18.007131325438895 4.125,17.01453534104971 4.8125,16.01875560501568 5.5,15.023716351966483 6.1875,14.033932872309101 6.875,13.054563517369948 7.562500000000001,12.091460570887401 8.25,11.151218164210825 8.9375,10.241214938142537 9.625,9.369648624151605 10.3125,8.54555914370205 11.0,7.7788362278767655 11.6875,7.080206973274928 12.375,6.461198221487787 13.0625,5.934068241826348 13.75,5.5117019913494305 14.4375,5.2074643203965 15.125000000000002,5.03500599703057 15.812499999999998,5.008018457727236 16.5,5.139934866680234 17.1875,5.443577472252537 17.875,5.930754431841984 18.5625,6.611813210531896 19.25,7.4951622213314595 19.9375,8.586777321314132 20.625,9.889714729796083 21.3125,11.403656383076319 22.0,13.124517075603228 22.6875,15.044144307959 23.375,17.1501409612998 24.0625,19.425837293350984 24.75,21.850432117993382 25.4375,24.399313567820144 26.125,27.044558141335603 26.8125,29.75559379917645 27.5,32.500000000000014 28.187499999999996,35.244406200823555 28.875,37.95544185866439 29.5625,40.600686432179856 30.250000000000004,43.149567882006615 30.9375,45.57416270664902 31.624999999999996,47.8498590387002 32.3125,49.955855692041 33.0,51.87548292439677 33.6875,53.596343616923676 34.375,55.11028527020392 35.0625,56.41322267868587 35.75,57.50483777866854 36.4375,58.38818678946811 37.125,59.06924556815802 37.8125,59.556422527747465 38.5,59.860065133319765 39.1875,59.99198154227276 39.875,59.96499400296943 40.5625,59.7925356796035 41.25,59.48829800865057 41.9375,59.065931758173654 42.625,58.538801778512216 43.3125,57.919793026725074 44.0,57.221163772123234 44.6875,56.45444085629795 45.375,55.63035137584839 46.0625,54.75878506185746 46.75,53.848781835789175 47.4375,52.9085394291126 48.125,51.94543648263006 48.8125,50.9660671276909 49.5,49.976283648033515 50.1875,48.981244394984316 50.875,47.98546465895029 51.5625,46.99286867456111 52.25,46.006841350298096 52.9375,45.030278665714235 53.625,44.06563597334665 54.3125,43.11497368308296 55.0,42.179999999999986 55.0,0 " style="fill:none;stroke:#ff0000;stroke-width:0.1"/>
<polyline points="6.875,0 6.875,6.527281758684974 " style="fill:none;stroke:#ff0000;stroke-width:0.1"/>
<polyline points="13.75,0 13.75,2.7558509956747153 " style="fill:none;stroke:#ff0000;stroke-width:0.1"/>
<polyline points="20.625,0 20.625,4.944857364898041 " style="fill:none;stroke:#ff0000;stroke-width:0.1"/>
<polyline points="27.5,0 27.5,16.250000000000007 " style="fill:none;stroke:#ff0000;stroke-width:0.1"/>
<polyline points="34.375,0 34.375,27.55514263510196 " style="fill:none;stroke:#ff0000;stroke-width:0.1"/>
<polyline points="41.25,0 41.25,29.744149004325283 " style="fill:none;stroke:#ff0000;stroke-width:0.1"/>
<polyline points="48.125,0 48.125,25.97271824131503 " style="fill:none;stroke:#ff0000;stroke-width:0.1"/>
<polyline points="55.0,0 55.0,21.089999999999993 " style="fill:none;stroke:#ff0000;stroke-width:0.1"/>
</g>
</g>
<g transform="translate(55.0,0)"
><g><polygon points="0.0,0 0.0,58.239999999999995 0.6875,57.86872747513079 1.375,57.449670629730356 2.0625,56.979422308533884 2.75,56.45444085629795 3.4375,55.87106667616874 4.125,55.22554475246746 4.8125,54.514054219811435 5.5,53.73274616844171 6.1875,52.877790970456374 6.875,51.94543648263006 7.562500000000001,50.932078514653625 8.25,49.834344929297956 8.9375,48.64919464153029 9.625,47.37403258130719 10.3125,46.006841350298096 11.0,44.54632980421258 11.6875,42.99209809706615 12.375,41.34481780136533 13.0625,39.60642454544198 13.75,37.78031917560554 14.4375,35.87157176663494 15.125000000000002,33.88712090924086 15.812499999999998,31.835958676486456 16.5,29.72928963973133 17.1875,27.58065044950046 17.875,25.405975053686717 18.5625,23.223589877888678 19.25,21.054123552017924 19.9375,18.920317340983836 20.625,16.846725582166513 21.3125,14.85930029741778 22.0,12.984860711580637 22.6875,11.250456427051422 23.375,9.682641969499738 24.0625,8.306689570873761 24.75,7.145775422495488 25.4375,6.220181139751023 26.125,5.546555802147798 26.8125,5.137283859147293 27.5,5.0 28.187499999999996,5.137283859147293 28.875,5.5465558021478 29.5625,6.220181139751026 30.250000000000004,7.145775422495494 30.9375,8.306689570873765 31.624999999999996,9.682641969499745 32.3125,11.250456427051429 33.0,12.984860711580648 33.6875,14.859300297417787 34.375,16.84672558216652 35.0625,18.92031734098385 35.75,21.054123552017927 36.4375,23.223589877888678 37.125,25.405975053686703 37.8125,27.58065044950047 38.5,29.72928963973132 39.1875,31.83595867648644 39.875,33.88712090924088 40.5625,35.87157176663494 41.25,37.78031917560555 41.9375,39.60642454544202 42.625,41.34481780136532 43.3125,42.99209809706615 44.0,44.546329804212604 44.6875,46.00684135029813 45.375,47.374032581307205 46.0625,48.64919464153028 46.75,49.834344929297956 47.4375,50.93207851465364 48.125,51.94543648263006 48.8125,52.87779097045637 49.5,53.73274616844169 50.1875,54.51405421981145 50.875,55.22554475246745 51.5625,55.87106667616875 52.25,56.45444085629795 52.9375,56.97942230853388 53.625,57.44967062973037 54.3125,57.86872747513078 55.0,58.239999999999995 55.0,0 " style="fill:none;stroke:#ff0000;stroke-width:0.1"/>
<polyline points="6.875,51.94543648263006 6.875,25.97271824131503 " style="fill:none;stroke:#ff0000;stroke-width:0.1"/>
<polyline points="13.75,37.78031917560554 13.75,18.89015958780277 " style="fill:none;stroke:#ff0000;stroke-width:0.1"/>
<polyline points="20.625,16.846725582166513 20.625,8.423362791083257 " style="fill:none;stroke:#ff0000;stroke-width:0.1"/>
<polyline points="27.5,5.0 27.5,2.5 " style="fill:none;stroke:#ff0000;stroke-width:0.1"/>
<polyline points="34.375,16.84672558216652 34.375,8.42336279108326 " style="fill:none;stroke:#ff0000;stroke-width:0.1"/>
<polyline points="41.25,37.78031917560555 41.25,18.890159587802774 " style="fill:none;stroke:#ff0000;stroke-width:0.1"/>
<polyline points="48.125,51.94543648263006 48.125,25.97271824131503 " style="fill:none;stroke:#ff0000;stroke-width:0.1"/>
<polyline points="55.0,58.239999999999995 55.0,29.119999999999997 " style="fill:none;stroke:#ff0000;stroke-width:0.1"/>
</g>
</g>
<g><polygon points="0.0,0 0.0,59.556422527747465 0.6875,59.69431057180666 1.375,59.81082526149211 2.0625,59.90271072685265 2.75,59.966314834112254 3.4375,59.997546545084525 4.125,59.99183038441744 4.8125,59.944058462786764 5.5,59.84854080859105 6.1875,59.69895517165839 6.875,59.48829800865057 7.562500000000001,59.20883907510648 8.25,58.852082971994164 8.9375,58.4087421670729 9.625,57.86872747513079 10.3125,57.221163772123234 11.0,56.45444085629795 11.6875,55.55631184276894 12.375,54.514054219811435 13.0625,53.314711550289054 13.75,51.94543648263006 14.4375,50.39395776805136 15.125000000000002,48.64919464153029 15.812499999999998,46.702040186249434 16.5,44.54632980421258 17.1875,42.179999999999986 17.875,39.60642454544198 18.5625,36.83588812120321 19.25,33.88712090924086 19.9375,30.788772193707327 20.625,27.58065044950046 21.3125,24.31450915053321 22.0,21.054123552017924 22.6875,17.874399745174678 23.375,14.85930029741778 24.0625,12.098473894002563 24.75,9.682641969499738 25.4375,7.69800821626757 26.125,6.220181139751023 26.8125,5.308282644142471 27.5,5.0 28.187499999999996,5.308282644142471 28.875,6.220181139751026 29.5625,7.6980082162675725 30.250000000000004,9.682641969499745 30.9375,12.09847389400257 31.624999999999996,14.859300297417787 32.3125,17.874399745174685 33.0,21.054123552017927 33.6875,24.31450915053322 34.375,27.58065044950047 35.0625,30.788772193707324 35.75,33.88712090924088 36.4375,36.83588812120321 37.125,39.60642454544202 37.8125,42.18000000000001 38.5,44.546329804212604 39.1875,46.70204018624943 39.875,48.64919464153028 40.5625,50.39395776805135 41.25,51.94543648263006 41.9375,53.314711550289076 42.625,54.51405421981145 43.3125,55.55631184276894 44.0,56.45444085629795 44.6875,57.22116377212325 45.375,57.86872747513078 46.0625,58.40874216707291 46.75,58.852082971994164 47.4375,59.20883907510649 48.125,59.488298008650574 48.8125,59.6989551716584 49.5,59.84854080859105 50.1875,59.944058462786764 50.875,59.99183038441744 51.5625,59.997546545084525 52.25,59.966314834112254 52.9375,59.90271072685265 53.625,59.810825261492106 54.3125,59.69431057180667 55.0,59.55642252774745 55.0,0 " style="fill:none;stroke:#ff0000;stroke-width:0.1"/>
<polyline points="6.875,59.48829800865057 6.875,29.744149004325283 " style="fill:none;stroke:#ff0000;stroke-width:0.1"/>
<polyline points="13.75,51.94543648263006 13.75,25.97271824131503 " style="fill:none;stroke:#ff0000;stroke-width:0.1"/>
<polyline points="20.625,27.58065044950046 20.625,13.79032522475023 " style="fill:none;stroke:#ff0000;stroke-width:0.1"/>
<polyline points="27.5,5.0 27.5,2.5 " style="fill:none;stroke:#ff0000;stroke-width:0.1"/>
<polyline points="34.375,27.58065044950047 34.375,13.790325224750235 " style="fill:none;stroke:#ff0000;stroke-width:0.1"/>
<polyline points="41.25,51.94543648263006 41.25,25.97271824131503 " style="fill:none;stroke:#ff0000;stroke-width:0.1"/>
<polyline points="48.125,59.488298008650574 48.125,29.744149004325287 " style="fill:none;stroke:#ff0000;stroke-width:0.1"/>
<polyline points="55.0,59.55642252774745 55.0,29.778211263873725 " style="fill:none;stroke:#ff0000;stroke-width:0.1"/>
</g>
</g>
<g transform="translate(0,0.0)">
<g transform="translate(165.0,0)"
><g><polygon points="0.0,0 0.0,22.819999999999993 0.6875,21.88502631691702 1.375,20.934364026653355 2.0625,19.969721334285747 2.75,18.99315864970187 3.4375,18.007131325438905 4.125,17.014535341049694 4.8125,16.01875560501569 5.5,15.023716351966465 6.1875,14.033932872309087 6.875,13.054563517369942 7.562500000000001,12.091460570887401 8.25,11.15121816421082 8.9375,10.24121493814252 9.625,9.3696486241516 10.3125,8.545559143702047 11.0,7.77883622787675 11.6875,7.080206973274922 12.375,6.461198221487781 13.0625,5.934068241826351 13.75,5.511701991349428 14.4375,5.207464320396498 15.125000000000002,5.03500599703057 15.812499999999998,5.008018457727236 16.5,5.139934866680236 17.1875,5.443577472252546 17.875,5.930754431841981 18.5625,6.611813210531902 19.25,7.495162221331466 19.9375,8.586777321314138 20.625,9.889714729796086 21.3125,11.403656383076337 22.0,13.124517075603228 22.6875,15.044144307958987 23.375,17.150140961299826 24.0625,19.42583729335098 24.75,21.850432117993414 25.4375,24.399313567820162 26.125,27.04455814133562 26.8125,29.75559379917646 27.5,32.5 28.187499999999996,35.24440620082355 28.875,37.95544185866438 29.5625,40.60068643217984 30.250000000000004,43.149567882006586 30.9375,45.57416270664902 31.624999999999996,47.849859038700174 32.3125,49.95585569204101 33.0,51.87548292439677 33.6875,53.59634361692367 34.375,55.11028527020391 35.0625,56.41322267868586 35.75,57.50483777866854 36.4375,58.3881867894681 37.125,59.069245568158024 37.8125,59.55642252774745 38.5,59.860065133319765 39.1875,59.99198154227276 39.875,59.96499400296943 40.5625,59.7925356796035 41.25,59.488298008650574 41.9375,59.065931758173654 42.625,58.53880177851222 43.3125,57.919793026725074 44.0,57.22116377212325 44.6875,56.45444085629795 45.375,55.630351375848406 46.0625,54.75878506185748 46.75,53.848781835789175 47.4375,52.9085394291126 48.125,51.94543648263006 48.8125,50.96606712769091 49.5,49.97628364803354 50.1875,48.981244394984316 50.875,47.985464658950306 51.5625,46.992868674561095 52.25,46.00684135029813 52.9375,45.030278665714256 53.625,44.065635973346645 54.3125,43.11497368308298 55.0,42.18000000000001 55.0,0 " style="fill:none;stroke:#ff0000;stroke-width:0.1"/>
<polyline points="6.875,0 6.875,6.527281758684971 " style="fill:none;stroke:#ff0000;stroke-width:0.1"/>
<polyline points="13.75,0 13.75,2.755850995674714 " style="fill:none;stroke:#ff0000;stroke-width:0.1"/>
<polyline points="20.625,0 20.625,4.944857364898043 " style="fill:none;stroke:#ff0000;stroke-width:0.1"/>
<polyline points="27.5,0 27.5,16.25 " style="fill:none;stroke:#ff0000;stroke-width:0.1"/>
<polyline points="34.375,0 34.375,27.555142635101955 " style="fill:none;stroke:#ff0000;stroke-width:0.1"/>
<polyline points="41.25,0 41.25,29.744149004325287 " style="fill:none;stroke:#ff0000;stroke-width:0.1"/>
<polyline points="48.125,0 48.125,25.97271824131503 " style="fill:none;stroke:#ff0000;stroke-width:0.1"/>
<polyline points="55.0,0 55.0,21.090000000000003 " style="fill:none;stroke:#ff0000;stroke-width:0.1"/>
</g>
</g>
<g transform="translate(110.0,0)"
><g><polygon points="0.0,0 0.0,37.41934955049953 0.6875,36.58894516032245 1.375,35.720065765825986 2.0625,34.81115659799042 2.75,33.860716514717495 3.4375,32.86733363705266 4.125,31.829729819832323 4.8125,30.74681572812717 5.5,29.617758573465846 6.1875,28.44206486373708 6.875,27.219680824394448 7.562500000000001,25.951113433562565 8.25,24.637575244421402 8.9375,23.281156291587404 9.625,21.88502631691702 10.3125,20.45367019578739 11.0,18.99315864970187 11.6875,17.51145490019153 12.375,16.01875560501569 13.0625,14.527860920906969 13.75,13.054563517369942 14.4375,11.618039474340659 15.125000000000002,10.24121493814252 15.812499999999998,8.95107105305729 16.5,7.77883622787675 17.1875,6.760000000000002 17.875,5.934068241826351 18.5625,5.343967996034309 19.25,5.03500599703057 19.9375,5.053293469070452 20.625,5.443577472252546 21.3125,6.246471864656065 22.0,7.495162221331466 22.6875,9.211766550765308 23.375,11.403656383076337 24.0625,14.060159096502332 24.75,17.150140961299826 25.4375,20.62097632127668 26.125,24.399313567820162 26.8125,28.39384520029305 27.5,32.5 28.187499999999996,36.60615479970695 28.875,40.60068643217984 29.5625,44.37902367872332 30.250000000000004,47.849859038700174 30.9375,50.939840903497675 31.624999999999996,53.59634361692367 32.3125,55.788233449234696 33.0,57.50483777866854 33.6875,58.753528135343934 34.375,59.55642252774745 35.0625,59.946706530929546 35.75,59.96499400296943 36.4375,59.656032003965684 37.125,59.065931758173654 37.8125,58.239999999999995 38.5,57.22116377212325 39.1875,56.04892894694271 39.875,54.75878506185748 40.5625,53.381960525659345 41.25,51.94543648263006 41.9375,50.472139079093026 42.625,48.981244394984316 43.3125,47.48854509980847 44.0,46.00684135029813 44.6875,44.546329804212604 45.375,43.11497368308298 46.0625,41.7188437084126 46.75,40.3624247555786 47.4375,39.04888656643744 48.125,37.78031917560555 48.8125,36.55793513626291 49.5,35.38224142653415 50.1875,34.253184271872826 50.875,33.17027018016768 51.5625,32.13266636294735 52.25,31.13928348528251 52.9375,30.188843402009578 53.625,29.279934234174018 54.3125,28.411054839677547 55.0,27.58065044950047 55.0,0 " style="fill:none;stroke:#ff0000;stroke-width:0.1"/>
<polyline points="6.875,0 6.875,13.609840412197224 " style="fill:none;stroke:#ff0000;stroke-width:0.1"/>
<polyline points="13.75,0 13.75,6.527281758684971 " style="fill:none;stroke:#ff0000;stroke-width:0.1"/>
<polyline points="20.625,0 20.625,2.721788736126273 " style="fill:none;stroke:#ff0000;stroke-width:0.1"/>
<polyline points="27.5,0 27.5,16.25 " style="fill:none;stroke:#ff0000;stroke-width:0.1"/>
<polyline points="34.375,0 34.375,29.778211263873725 " style="fill:none;stroke:#ff0000;stroke-width:0.1"/>
<polyline points="41.25,0 41.25,25.97271824131503 " style="fill:none;stroke:#ff0000;stroke-width:0.1"/>
<polyline points="48.125,0 48.125,18.890159587802774 " style="fill:none;stroke:#ff0000;stroke-width:0.1"/>
<polyline points="55.0,0 55.0,13.790325224750235 " style="fill:none;stroke:#ff0000;stroke-width:0.1"/>
</g>
</g>
<g transform="translate(55.0,0)"
><g><polygon points="0.0,0 0.0,52.90152610599743 0.6875,52.564966663845716 1.375,52.204770040338644 2.0625,51.81876810520658 2.75,51.404552682495755 3.4375,50.95944559857619 4.125,50.4804648940985 4.8125,49.96428680840646 5.5,49.40720316964185 6.1875,48.80507389193441 6.875,48.15327441783347 7.562500000000001,47.446638187189016 8.25,46.67939461914852 8.9375,45.84510374503969 9.625,44.936589649664484 10.3125,43.94587644798207 11.0,42.86413290851161 11.6875,41.681635420118845 12.375,40.38776434239859 13.0625,38.971056676043986 13.75,37.41934955049953 14.4375,35.720065765825986 15.125000000000002,33.860716514717495 15.812499999999998,31.829729819832323 16.5,29.617758573465846 17.1875,27.219680824394448 17.875,24.637575244421402 18.5625,21.88502631691702 19.25,18.99315864970187 19.9375,16.01875560501569 20.625,13.054563517369942 21.3125,10.24121493814252 22.0,7.77883622787675 22.6875,5.934068241826351 23.375,5.03500599703057 24.0625,5.443577472252546 24.75,7.495162221331466 25.4375,11.403656383076337 26.125,17.150140961299826 26.8125,24.399313567820162 27.5,32.5 28.187499999999996,40.60068643217984 28.875,47.849859038700174 29.5625,53.59634361692367 30.250000000000004,57.50483777866854 30.9375,59.55642252774745 31.624999999999996,59.96499400296943 32.3125,59.065931758173654 33.0,57.22116377212325 33.6875,54.75878506185748 34.375,51.94543648263006 35.0625,48.981244394984316 35.75,46.00684135029813 36.4375,43.11497368308298 37.125,40.3624247555786 37.8125,37.78031917560555 38.5,35.38224142653415 39.1875,33.17027018016768 39.875,31.13928348528251 40.5625,29.279934234174018 41.25,27.58065044950047 41.9375,26.02894332395602 42.625,24.61223565760141 43.3125,23.31836457988116 44.0,22.135867091488393 44.6875,21.054123552017927 45.375,20.063410350335516 46.0625,19.154896254960313 46.75,18.320605380851482 47.4375,17.553361812810984 48.125,16.84672558216652 48.8125,16.194926108065587 49.5,15.592796830358148 50.1875,15.035713191593537 50.875,14.519535105901499 51.5625,14.04055440142381 52.25,13.595447317504245 52.9375,13.181231894793417 53.625,12.79522995966136 54.3125,12.43503333615428 55.0,12.09847389400257 55.0,0 " style="fill:none;stroke:#ff0000;stroke-width:0.1"/>
<polyline points="6.875,0 6.875,24.076637208916736 " style="fill:none;stroke:#ff0000;stroke-width:0.1"/>
<polyline points="13.75,0 13.75,18.709674775249766 " style="fill:none;stroke:#ff0000;stroke-width:0.1"/>
<polyline points="20.625,0 20.625,6.527281758684971 " style="fill:none;stroke:#ff0000;stroke-width:0.1"/>
<polyline points="27.5,0 27.5,16.25 " style="fill:none;stroke:#ff0000;stroke-width:0.1"/>
<polyline points="34.375,0 34.375,25.97271824131503 " style="fill:none;stroke:#ff0000;stroke-width:0.1"/>
<polyline points="41.25,0 41.25,13.790325224750235 " style="fill:none;stroke:#ff0000;stroke-width:0.1"/>
<polyline points="48.125,0 48.125,8.42336279108326 " style="fill:none;stroke:#ff0000;stroke-width:0.1"/>
<polyline points="55.0,0 55.0,6.049236947001285 " style="fill:none;stroke:#ff0000;stroke-width:0.1"/>
</g>
</g>
<g><polygon points="0.0,0 0.0,60.0 0.6875,60.0 1.375,60.0 2.0625,60.0 2.75,60.0 3.4375,60.0 4.125,60.0 4.8125,60.0 5.5,60.0 6.1875,60.0 6.875,60.0 7.562500000000001,60.0 8.25,60.0 8.9375,60.0 9.625,60.0 10.3125,60.0 11.0,60.0 11.6875,60.0 12.375,60.0 13.0625,60.0 13.75,60.0 14.4375,60.0 15.125000000000002,60.0 15.812499999999998,60.0 16.5,60.0 17.1875,60.0 17.875,60.0 18.5625,60.0 19.25,60.0 19.9375,60.0 20.625,60.0 21.3125,60.0 22.0,60.0 22.6875,60.0 23.375,60.0 24.0625,60.0 24.75,60.0 25.4375,60.0 26.125,60.0 26.8125,60.0 27.5,32.5 28.187499999999996,5.0 28.875,5.0 29.5625,5.0 30.250000000000004,5.0 30.9375,5.0 31.624999999999996,5.0 32.3125,5.0 33.0,5.0 33.6875,5.0 34.375,5.0 35.0625,5.0 35.75,5.0 36.4375,5.0 37.125,5.0 37.8125,5.0 38.5,5.0 39.1875,5.0 39.875,5.0 40.5625,5.0 41.25,5.0 41.9375,5.0 42.625,5.0 43.3125,5.0 44.0,5.0 44.6875,5.0 45.375,5.0 46.0625,5.0 46.75,5.0 47.4375,5.0 48.125,5.0 48.8125,5.0 49.5,5.0 50.1875,5.0 50.875,5.0 51.5625,5.0 52.25,5.0 52.9375,5.0 53.625,5.0 54.3125,5.0 55.0,5.0 55.0,0 " style="fill:none;stroke:#ff0000;stroke-width:0.1"/>
<polyline points="6.875,0 6.875,30.0 " style="fill:none;stroke:#ff0000;stroke-width:0.1"/>
<polyline points="13.75,0 13.75,30.0 " style="fill:none;stroke:#ff0000;stroke-width:0.1"/>
<polyline points="20.625,0 20.625,30.0 " style="fill:none;stroke:#ff0000;stroke-width:0.1"/>
<polyline points="27.5,0 27.5,16.25 " style="fill:none;stroke:#ff0000;stroke-width:0.1"/>
<polyline points="34.375,0 34.375,2.5 " style="fill:none;stroke:#ff0000;stroke-width:0.1"/>
<polyline points="41.25,0 41.25,2.5 " style="fill:none;stroke:#ff0000;stroke-width:0.1"/>
<polyline points="48.125,0 48.125,2.5 " style="fill:none;stroke:#ff0000;stroke-width:0.1"/>
<polyline points="55.0,0 55.0,2.5 " style="fill:none;stroke:#ff0000;stroke-width:0.1"/>
</g>
</g>

</g>
</svg>
