<?xml version="1.0" encoding="UTF-8" standalone="no"?>
<svg width="297.0mm" height="210.0mm" viewBox="0 0 297.0 210.0" >
<g transform="translate(11.0,15.0)">
<g transform="translate(0,120.0)">
<g transform="translate(220.0,0)"
><g><polygon points="0.0,0 0.0,11.42850390506546 0.6875,12.132254463819939 1.375,13.029869317095306 2.0625,14.07759187537682 2.75,15.22129553997953 3.4375,16.399163056400432 4.125,17.544876672533718 4.8125,18.59115468411416 5.5,19.473446925093615 6.1875,20.133588737853344 6.875,20.523210838950586 7.562500000000001,20.606711584692228 8.25,20.363618118665364 8.9375,19.790192818737477 9.625,18.900179853398516 10.3125,17.724631514009587 11.0,16.310802931142682 11.6875,14.720154171758292 12.375,13.025547796956124 13.0625,11.307775022356072 13.75,9.651582138544812 14.4375,8.14139862231605 15.125000000000002,6.856987661808629 15.812499999999998,5.86924744846801 16.5,5.236387002305753 17.1875,5.000683604808463 17.875,5.186000890736585 18.5625,5.796208697618271 19.25,6.814599846473592 19.9375,8.204347537108042 20.625,9.909992716437413 21.3125,11.859896523610182 22.0,13.969541652423134 22.6875,16.145520977299846 23.375,18.290014545025855 24.0625,20.30552908784814 24.75,22.099659064090332 25.4375,23.58962574784466 26.125,24.70636125569393 26.8125,25.397927107926996 27.5,25.63209079826036 28.187499999999996,25.397927107926996 28.875,24.70636125569393 29.5625,23.58962574784466 30.250000000000004,22.099659064090332 30.9375,20.30552908784814 31.624999999999996,18.290014545025855 32.3125,16.145520977299846 33.0,13.969541652423134 33.6875,11.859896523610182 34.375,9.909992716437413 35.0625,8.204347537108042 35.75,6.814599846473592 36.4375,5.796208697618271 37.125,5.186000890736585 37.8125,5.000683604808463 38.5,5.236387002305753 39.1875,5.86924744846801 39.875,6.856987661808629 40.5625,8.14139862231605 41.25,9.651582138544812 41.9375,11.307775022356072 42.625,13.025547796956124 43.3125,14.720154171758292 44.0,16.310802931142682 44.6875,17.724631514009587 45.375,18.900179853398516 46.0625,19.790192818737477 46.75,20.363618118665364 47.4375,20.606711584692228 48.125,20.523210838950586 48.8125,20.133588737853344 49.5,19.473446925093615 50.1875,18.59115468411416 50.875,17.544876672533718 51.5625,16.399163056400432 52.25,15.22129553997953 52.9375,14.07759187537682 53.625,13.029869317095306 54.3125,12.132254463819939 55.0,11.42850390506546 55.0,0 " style="fill:none;stroke:#ff0000;stroke-width:0.1"/>
<polyline points="6.875,20.523210838950586 6.875,10.261605419475293 " style="fill:none;stroke:#ff0000;stroke-width:0.1"/>
<polyline points="13.75,9.651582138544812 13.75,4.825791069272406 " style="fill:none;stroke:#ff0000;stroke-width:0.1"/>
<polyline points="20.625,9.909992716437413 20.625,4.954996358218707 " style="fill:none;stroke:#ff0000;stroke-width:0.1"/>
<polyline points="27.5,25.63209079826036 27.5,12.81604539913018 " style="fill:none;stroke:#ff0000;stroke-width:0.1"/>
<polyline points="34.375,9.909992716437413 34.375,4.954996358218707 " style="fill:none;stroke:#ff0000;stroke-width:0.1"/>
<polyline points="41.25,9.651582138544812 41.25,4.825791069272406 " style="fill:none;stroke:#ff0000;stroke-width:0.1"/>
<polyline points="48.125,20.523210838950586 48.125,10.261605419475293 " style="fill:none;stroke:#ff0000;stroke-width:0.1"/>
<polyline points="55.0,11.42850390506546 55.0,5.71425195253273 " style="fill:none;stroke:#ff0000;stroke-width:0.1"/>
</g>
</g>
<g transform="translate(165.0,0)"
><g><polygon points="0.0,0 0.0,12.357263787030885 0.6875,13.334647852732768 1.375,14.457962056724783 2.0625,15.664820435412508 2.75,16.884446715461912 3.4375,18.041447185207577 4.125,19.060027191744407 4.8125,19.86843176199219 5.5,20.40337075544125 6.1875,20.614181556782952 6.875,20.466488341511752 7.562500000000001,19.94513640209285 8.25,19.056212169314158 8.9375,17.828002950379965 9.625,16.310802931142682 10.3125,14.575531009340214 11.0,12.711188485236393 11.6875,10.821247234397356 12.375,9.019118352250512 13.0625,7.42290413157151 13.75,6.149679644014331 14.4375,5.309581635117423 15.125000000000002,5.0 15.812499999999998,5.300169588784563 16.5,6.266447089360653 17.1875,7.928529663917846 17.875,10.28683009730332 18.5625,13.311169425643534 19.25,16.940884984928243 19.9375,21.086382705979595 20.625,25.63209079826036 21.3125,30.4407013993112 22.0,35.3585209883141 22.6875,40.221692824938884 23.375,44.863008430946905 24.0625,49.11899266872493 24.75,52.83693007300694 25.4375,55.88149974391815 26.125,58.140702438481384 26.8125,59.53079576327043 27.5,60.0 28.187499999999996,59.53079576327043 28.875,58.140702438481384 29.5625,55.88149974391815 30.250000000000004,52.83693007300694 30.9375,49.11899266872493 31.624999999999996,44.863008430946905 32.3125,40.221692824938884 33.0,35.3585209883141 33.6875,30.4407013993112 34.375,25.63209079826036 35.0625,21.086382705979595 35.75,16.940884984928243 36.4375,13.311169425643534 37.125,10.28683009730332 37.8125,7.928529663917846 38.5,6.266447089360653 39.1875,5.300169588784563 39.875,5.0 40.5625,5.309581635117423 41.25,6.149679644014331 41.9375,7.42290413157151 42.625,9.019118352250512 43.3125,10.821247234397356 44.0,12.711188485236393 44.6875,14.575531009340214 45.375,16.310802931142682 46.0625,17.828002950379965 46.75,19.056212169314158 47.4375,19.94513640209285 48.125,20.466488341511752 48.8125,20.614181556782952 49.5,20.40337075544125 50.1875,19.86843176199219 50.875,19.060027191744407 51.5625,18.041447185207577 52.25,16.884446715461912 52.9375,15.664820435412508 53.625,14.457962056724783 54.3125,13.334647852732768 55.0,12.357263787030885 55.0,0 " style="fill:none;stroke:#ff0000;stroke-width:0.1"/>
<polyline points="6.875,20.466488341511752 6.875,10.233244170755876 " style="fill:none;stroke:#ff0000;stroke-width:0.1"/>
<polyline points="13.75,6.149679644014331 13.75,3.0748398220071653 " style="fill:none;stroke:#ff0000;stroke-width:0.1"/>
<polyline points="20.625,25.63209079826036 20.625,12.81604539913018 " style="fill:none;stroke:#ff0000;stroke-width:0.1"/>
<polyline points="27.5,60.0 27.5,30.0 " style="fill:none;stroke:#ff0000;stroke-width:0.1"/>
<polyline points="34.375,25.63209079826036 34.375,12.81604539913018 " style="fill:none;stroke:#ff0000;stroke-width:0.1"/>
<polyline points="41.25,6.149679644014331 41.25,3.0748398220071653 " style="fill:none;stroke:#ff0000;stroke-width:0.1"/>
<polyline points="48.125,20.466488341511752 48.125,10.233244170755876 " style="fill:none;stroke:#ff0000;stroke-width:0.1"/>
<polyline points="55.0,12.357263787030885 55.0,6.178631893515442 " style="fill:none;stroke:#ff0000;stroke-width:0.1"/>
</g>
</g>
<g transform="translate(110.0,0)"
><g><polygon points="0.0,0 0.0,11.42850390506546 0.6875,12.132254463819939 1.375,13.029869317095306 2.0625,14.07759187537682 2.75,15.22129553997953 3.4375,16.399163056400432 4.125,17.544876672533718 4.8125,18.59115468411416 5.5,19.473446925093615 6.1875,20.133588737853344 6.875,20.523210838950586 7.562500000000001,20.606711584692228 8.25,20.363618118665364 8.9375,19.790192818737477 9.625,18.900179853398516 10.3125,17.724631514009587 11.0,16.310802931142682 11.6875,14.720154171758292 12.375,13.025547796956124 13.0625,11.307775022356072 13.75,9.651582138544812 14.4375,8.14139862231605 15.125000000000002,6.856987661808629 15.812499999999998,5.86924744846801 16.5,5.236387002305753 17.1875,5.000683604808463 17.875,5.186000890736585 18.5625,5.796208697618271 19.25,6.814599846473592 19.9375,8.204347537108042 20.625,9.909992716437413 21.3125,11.859896523610182 22.0,13.969541652423134 22.6875,16.145520977299846 23.375,18.290014545025855 24.0625,20.30552908784814 24.75,22.099659064090332 25.4375,23.58962574784466 26.125,24.70636125569393 26.8125,25.397927107926996 27.5,25.63209079826036 28.187499999999996,25.397927107926996 28.875,24.70636125569393 29.5625,23.58962574784466 30.250000000000004,22.099659064090332 30.9375,20.30552908784814 31.624999999999996,18.290014545025855 32.3125,16.145520977299846 33.0,13.969541652423134 33.6875,11.859896523610182 34.375,9.909992716437413 35.0625,8.204347537108042 35.75,6.814599846473592 36.4375,5.796208697618271 37.125,5.186000890736585 37.8125,5.000683604808463 38.5,5.236387002305753 39.1875,5.86924744846801 39.875,6.856987661808629 40.5625,8.14139862231605 41.25,9.651582138544812 41.9375,11.307775022356072 42.625,13.025547796956124 43.3125,14.720154171758292 44.0,16.310802931142682 44.6875,17.724631514009587 45.375,18.900179853398516 46.0625,19.790192818737477 46.75,20.363618118665364 47.4375,20.606711584692228 48.125,20.523210838950586 48.8125,20.133588737853344 49.5,19.473446925093615 50.1875,18.59115468411416 50.875,17.544876672533718 51.5625,16.399163056400432 52.25,15.22129553997953 52.9375,14.07759187537682 53.625,13.029869317095306 54.3125,12.132254463819939 55.0,11.42850390506546 55.0,0 " style="fill:none;stroke:#ff0000;stroke-width:0.1"/>
<polyline points="6.875,20.523210838950586 6.875,10.261605419475293 " style="fill:none;stroke:#ff0000;stroke-width:0.1"/>
<polyline points="13.75,9.651582138544812 13.75,4.825791069272406 " style="fill:none;stroke:#ff0000;stroke-width:0.1"/>
<polyline points="20.625,9.909992716437413 20.625,4.954996358218707 " style="fill:none;stroke:#ff0000;stroke-width:0.1"/>
<polyline points="27.5,25.63209079826036 27.5,12.81604539913018 " style="fill:none;stroke:#ff0000;stroke-width:0.1"/>
<polyline points="34.375,9.909992716437413 34.375,4.954996358218707 " style="fill:none;stroke:#ff0000;stroke-width:0.1"/>
<polyline points="41.25,9.651582138544812 41.25,4.825791069272406 " style="fill:none;stroke:#ff0000;stroke-width:0.1"/>
<polyline points="48.125,20.523210838950586 48.125,10.261605419475293 " style="fill:none;stroke:#ff0000;stroke-width:0.1"/>
<polyline points="55.0,11.42850390506546 55.0,5.71425195253273 " style="fill:none;stroke:#ff0000;stroke-width:0.1"/>
</g>
</g>
<g transform="translate(55.0,0)"
><g><polygon points="0.0,0 0.0,10.842755837712904 0.6875,10.69472395050304 1.375,10.748078678254188 2.0625,11.005196204805749 2.75,11.458568146186924 3.4375,12.091153936234893 4.125,12.87721627476039 4.8125,13.783591391043673 5.5,14.771322843383704 6.1875,15.797568714814082 6.875,16.817678403848014 7.562500000000001,17.787327470693878 8.25,18.664597562792622 8.9375,19.41189332345145 9.625,19.99759903559603 10.3125,20.397393880755672 11.0,20.595165114872266 11.6875,20.583481952450732 12.375,20.363618118665364 13.0625,19.94513640209285 13.75,19.345072649431962 14.4375,18.586778108536365 15.125000000000002,17.698496638234637 15.812499999999998,16.71176609368674 16.5,15.659740490602932 17.1875,14.575531009340214 17.875,13.490659529600899 18.5625,12.433708543788672 19.25,11.429236660310298 19.9375,10.497010435121858 20.625,9.651582138544812 21.3125,8.902220600462513 22.0,8.253179872975439 22.6875,7.704269480420878 23.375,7.251671766815217 24.0625,6.8889373976562815 24.75,6.608080281414893 25.4375,6.400688607452735 26.125,6.258969586983089 26.8125,6.176651728507935 27.5,6.149679644014331 28.187499999999996,6.176651728507935 28.875,6.258969586983089 29.5625,6.400688607452735 30.250000000000004,6.608080281414893 30.9375,6.8889373976562815 31.624999999999996,7.251671766815217 32.3125,7.704269480420878 33.0,8.253179872975439 33.6875,8.902220600462513 34.375,9.651582138544812 35.0625,10.497010435121858 35.75,11.429236660310298 36.4375,12.433708543788672 37.125,13.490659529600899 37.8125,14.575531009340214 38.5,15.659740490602932 39.1875,16.71176609368674 39.875,17.698496638234637 40.5625,18.586778108536365 41.25,19.345072649431962 41.9375,19.94513640209285 42.625,20.363618118665364 43.3125,20.583481952450732 44.0,20.595165114872266 44.6875,20.397393880755672 45.375,19.99759903559603 46.0625,19.41189332345145 46.75,18.664597562792622 47.4375,17.787327470693878 48.125,16.817678403848014 48.8125,15.797568714814082 49.5,14.771322843383704 50.1875,13.783591391043673 50.875,12.87721627476039 51.5625,12.091153936234893 52.25,11.458568146186924 52.9375,11.005196204805749 53.625,10.748078678254188 54.3125,10.69472395050304 55.0,10.842755837712904 55.0,0 " style="fill:none;stroke:#ff0000;stroke-width:0.1"/>
<polyline points="6.875,16.817678403848014 6.875,8.408839201924007 " style="fill:none;stroke:#ff0000;stroke-width:0.1"/>
<polyline points="13.75,19.345072649431962 13.75,9.672536324715981 " style="fill:none;stroke:#ff0000;stroke-width:0.1"/>
<polyline points="20.625,9.651582138544812 20.625,4.825791069272406 " style="fill:none;stroke:#ff0000;stroke-width:0.1"/>
<polyline points="27.5,6.149679644014331 27.5,3.0748398220071653 " style="fill:none;stroke:#ff0000;stroke-width:0.1"/>
<polyline points="34.375,9.651582138544812 34.375,4.825791069272406 " style="fill:none;stroke:#ff0000;stroke-width:0.1"/>
<polyline points="41.25,19.345072649431962 41.25,9.672536324715981 " style="fill:none;stroke:#ff0000;stroke-width:0.1"/>
<polyline points="48.125,16.817678403848014 48.125,8.408839201924007 " style="fill:none;stroke:#ff0000;stroke-width:0.1"/>
<polyline points="55.0,10.842755837712904 55.0,5.421377918856452 " style="fill:none;stroke:#ff0000;stroke-width:0.1"/>
</g>
</g>
<g transform="translate(0.0,0)"
><g><polygon points="0.0,0 0.0,14.575663077574243 0.6875,13.851721008606036 1.375,13.149225181692934 2.0625,12.49544816088985 2.75,11.915281377644778 3.4375,11.43027176249668 4.125,11.057846568231234 4.8125,10.810754605681065 5.5,10.69674003085153 6.1875,10.718452470212256 6.875,10.87358533119696 7.562500000000001,11.1552232457916 8.25,11.55237027820386 8.9375,12.050623219880677 9.625,12.63294928872972 10.3125,13.280524990538723 11.0,13.973592787562573 11.6875,14.692294409380711 12.375,15.417443865988881 13.0625,16.131209110776027 13.75,16.817678403848014 14.4375,17.463295251780526 15.125000000000002,18.05715384399199 15.812499999999998,18.59115468411416 16.5,19.060027191744407 17.1875,19.4612320644558 17.875,19.794760873395127 18.5625,20.06285355447963 19.25,20.269656096695147 19.9375,20.42084087127084 20.625,20.523210838950586 21.3125,20.584306545950092 22.0,20.612031660719417 22.6875,20.614309136936996 23.375,20.5987762466682 24.0625,20.57252302935025 24.75,20.541875426731096 25.4375,20.51222174269735 26.125,20.487879229332638 26.8125,20.47199662493935 27.5,20.466488341511752 28.187499999999996,20.47199662493935 28.875,20.487879229332638 29.5625,20.51222174269735 30.250000000000004,20.541875426731096 30.9375,20.57252302935025 31.624999999999996,20.5987762466682 32.3125,20.614309136936996 33.0,20.612031660719417 33.6875,20.584306545950092 34.375,20.523210838950586 35.0625,20.42084087127084 35.75,20.269656096695147 36.4375,20.06285355447963 37.125,19.794760873395127 37.8125,19.4612320644558 38.5,19.060027191744407 39.1875,18.59115468411416 39.875,18.05715384399199 40.5625,17.463295251780526 41.25,16.817678403848014 41.9375,16.131209110776027 42.625,15.417443865988881 43.3125,14.692294409380711 44.0,13.973592787562573 44.6875,13.280524990538723 45.375,12.63294928872972 46.0625,12.050623219880677 46.75,11.55237027820386 47.4375,11.1552232457916 48.125,10.87358533119696 48.8125,10.718452470212256 49.5,10.69674003085153 50.1875,10.810754605681065 50.875,11.057846568231234 51.5625,11.43027176249668 52.25,11.915281377644778 52.9375,12.49544816088985 53.625,13.149225181692934 54.3125,13.851721008606036 55.0,14.575663077574243 55.0,0 " style="fill:none;stroke:#ff0000;stroke-width:0.1"/>
<polyline points="6.875,10.87358533119696 6.875,5.43679266559848 " style="fill:none;stroke:#ff0000;stroke-width:0.1"/>
<polyline points="13.75,16.817678403848014 13.75,8.408839201924007 " style="fill:none;stroke:#ff0000;stroke-width:0.1"/>
<polyline points="20.625,20.523210838950586 20.625,10.261605419475293 " style="fill:none;stroke:#ff0000;stroke-width:0.1"/>
<polyline points="27.5,20.466488341511752 27.5,10.233244170755876 " style="fill:none;stroke:#ff0000;stroke-width:0.1"/>
<polyline points="34.375,20.523210838950586 34.375,10.261605419475293 " style="fill:none;stroke:#ff0000;stroke-width:0.1"/>
<polyline points="41.25,16.817678403848014 41.25,8.408839201924007 " style="fill:none;stroke:#ff0000;stroke-width:0.1"/>
<polyline points="48.125,10.87358533119696 48.125,5.43679266559848 " style="fill:none;stroke:#ff0000;stroke-width:0.1"/>
<polyline points="55.0,14.575663077574243 55.0,7.287831538787121 " style="fill:none;stroke:#ff0000;stroke-width:0.1"/>
</g>
</g>

</g>
<g transform="translate(0,60.0)">
<g transform="translate(220.0,0)"
><g><polygon points="0.0,0 0.0,11.42850390506546 0.6875,12.132254463819939 1.375,13.029869317095306 2.0625,14.07759187537682 2.75,15.22129553997953 3.4375,16.399163056400432 4.125,17.544876672533718 4.8125,18.59115468411416 5.5,19.473446925093615 6.1875,20.133588737853344 6.875,20.523210838950586 7.562500000000001,20.606711584692228 8.25,20.363618118665364 8.9375,19.790192818737477 9.625,18.900179853398516 10.3125,17.724631514009587 11.0,16.310802931142682 11.6875,14.720154171758292 12.375,13.025547796956124 13.0625,11.307775022356072 13.75,9.651582138544812 14.4375,8.14139862231605 15.125000000000002,6.856987661808629 15.812499999999998,5.86924744846801 16.5,5.236387002305753 17.1875,5.000683604808463 17.875,5.186000890736585 18.5625,5.796208697618271 19.25,6.814599846473592 19.9375,8.204347537108042 20.625,9.909992716437413 21.3125,11.859896523610182 22.0,13.969541652423134 22.6875,16.145520977299846 23.375,18.290014545025855 24.0625,20.30552908784814 24.75,22.099659064090332 25.4375,23.58962574784466 26.125,24.70636125569393 26.8125,25.397927107926996 27.5,25.63209079826036 28.187499999999996,25.397927107926996 28.875,24.70636125569393 29.5625,23.58962574784466 30.250000000000004,22.099659064090332 30.9375,20.30552908784814 31.624999999999996,18.290014545025855 32.3125,16.145520977299846 33.0,13.969541652423134 33.6875,11.859896523610182 34.375,9.909992716437413 35.0625,8.204347537108042 35.75,6.814599846473592 36.4375,5.796208697618271 37.125,5.186000890736585 37.8125,5.000683604808463 38.5,5.236387002305753 39.1875,5.86924744846801 39.875,6.856987661808629 40.5625,8.14139862231605 41.25,9.651582138544812 41.9375,11.307775022356072 42.625,13.025547796956124 43.3125,14.720154171758292 44.0,16.310802931142682 44.6875,17.724631514009587 45.375,18.900179853398516 46.0625,19.790192818737477 46.75,20.363618118665364 47.4375,20.606711584692228 48.125,20.523210838950586 48.8125,20.133588737853344 49.5,19.473446925093615 50.1875,18.59115468411416 50.875,17.544876672533718 51.5625,16.399163056400432 52.25,15.22129553997953 52.9375,14.07759187537682 53.625,13.029869317095306 54.3125,12.132254463819939 55.0,11.42850390506546 55.0,0 " style="fill:none;stroke:#ff0000;stroke-width:0.1"/>
<polyline points="6.875,0 6.875,10.261605419475293 " style="fill:none;stroke:#ff0000;stroke-width:0.1"/>
<polyline points="13.75,0 13.75,4.825791069272406 " style="fill:none;stroke:#ff0000;stroke-width:0.1"/>
<polyline points="20.625,0 20.625,4.954996358218707 " style="fill:none;stroke:#ff0000;stroke-width:0.1"/>
<polyline points="27.5,0 27.5,12.81604539913018 " style="fill:none;stroke:#ff0000;stroke-width:0.1"/>
<polyline points="34.375,0 34.375,4.954996358218707 " style="fill:none;stroke:#ff0000;stroke-width:0.1"/>
<polyline points="41.25,0 41.25,4.825791069272406 " style="fill:none;stroke:#ff0000;stroke-width:0.1"/>
<polyline points="48.125,0 48.125,10.261605419475293 " style="fill:none;stroke:#ff0000;stroke-width:0.1"/>
<polyline points="55.0,0 55.0,5.71425195253273 " style="fill:none;stroke:#ff0000;stroke-width:0.1"/>
</g>
</g>
<g transform="translate(165.0,0)"
><g><polygon points="0.0,0 0.0,10.842755837712904 0.6875,10.69472395050304 1.375,10.748078678254188 2.0625,11.005196204805749 2.75,11.458568146186924 3.4375,12.091153936234893 4.125,12.87721627476039 4.8125,13.783591391043673 5.5,14.771322843383704 6.1875,15.797568714814082 6.875,16.817678403848014 7.562500000000001,17.787327470693878 8.25,18.664597562792622 8.9375,19.41189332345145 9.625,19.99759903559603 10.3125,20.397393880755672 11.0,20.595165114872266 11.6875,20.583481952450732 12.375,20.363618118665364 13.0625,19.94513640209285 13.75,19.345072649431962 14.4375,18.586778108536365 15.125000000000002,17.698496638234637 15.812499999999998,16.71176609368674 16.5,15.659740490602932 17.1875,14.575531009340214 17.875,13.490659529600899 18.5625,12.433708543788672 19.25,11.429236660310298 19.9375,10.497010435121858 20.625,9.651582138544812 21.3125,8.902220600462513 22.0,8.253179872975439 22.6875,7.704269480420878 23.375,7.251671766815217 24.0625,6.8889373976562815 24.75,6.608080281414893 25.4375,6.400688607452735 26.125,6.258969586983089 26.8125,6.176651728507935 27.5,6.149679644014331 28.187499999999996,6.176651728507935 28.875,6.258969586983089 29.5625,6.400688607452735 30.250000000000004,6.608080281414893 30.9375,6.8889373976562815 31.624999999999996,7.251671766815217 32.3125,7.704269480420878 33.0,8.253179872975439 33.6875,8.902220600462513 34.375,9.651582138544812 35.0625,10.497010435121858 35.75,11.429236660310298 36.4375,12.433708543788672 37.125,13.490659529600899 37.8125,14.575531009340214 38.5,15.659740490602932 39.1875,16.71176609368674 39.875,17.698496638234637 40.5625,18.586778108536365 41.25,19.345072649431962 41.9375,19.94513640209285 42.625,20.363618118665364 43.3125,20.583481952450732 44.0,20.595165114872266 44.6875,20.397393880755672 45.375,19.99759903559603 46.0625,19.41189332345145 46.75,18.664597562792622 47.4375,17.787327470693878 48.125,16.817678403848014 48.8125,15.797568714814082 49.5,14.771322843383704 50.1875,13.783591391043673 50.875,12.87721627476039 51.5625,12.091153936234893 52.25,11.458568146186924 52.9375,11.005196204805749 53.625,10.748078678254188 54.3125,10.69472395050304 55.0,10.842755837712904 55.0,0 " style="fill:none;stroke:#ff0000;stroke-width:0.1"/>
<polyline points="6.875,0 6.875,8.408839201924007 " style="fill:none;stroke:#ff0000;stroke-width:0.1"/>
<polyline points="13.75,0 13.75,9.672536324715981 " style="fill:none;stroke:#ff0000;stroke-width:0.1"/>
<polyline points="20.625,0 20.625,4.825791069272406 " style="fill:none;stroke:#ff0000;stroke-width:0.1"/>
<polyline points="27.5,0 27.5,3.0748398220071653 " style="fill:none;stroke:#ff0000;stroke-width:0.1"/>
<polyline points="34.375,0 34.375,4.825791069272406 " style="fill:none;stroke:#ff0000;stroke-width:0.1"/>
<polyline points="41.25,0 41.25,9.672536324715981 " style="fill:none;stroke:#ff0000;stroke-width:0.1"/>
<polyline points="48.125,0 48.125,8.408839201924007 " style="fill:none;stroke:#ff0000;stroke-width:0.1"/>
<polyline points="55.0,0 55.0,5.421377918856452 " style="fill:none;stroke:#ff0000;stroke-width:0.1"/>
</g>
</g>
<g transform="translate(110.0,0)"
><g><polygon points="0.0,0 0.0,14.575663077574243 0.6875,13.851721008606036 1.375,13.149225181692934 2.0625,12.49544816088985 2.75,11.915281377644778 3.4375,11.43027176249668 4.125,11.057846568231234 4.8125,10.810754605681065 5.5,10.69674003085153 6.1875,10.718452470212256 6.875,10.87358533119696 7.562500000000001,11.1552232457916 8.25,11.55237027820386 8.9375,12.050623219880677 9.625,12.63294928872972 10.3125,13.280524990538723 11.0,13.973592787562573 11.6875,14.692294409380711 12.375,15.417443865988881 13.0625,16.131209110776027 13.75,16.817678403848014 14.4375,17.463295251780526 15.125000000000002,18.05715384399199 15.812499999999998,18.59115468411416 16.5,19.060027191744407 17.1875,19.4612320644558 17.875,19.794760873395127 18.5625,20.06285355447963 19.25,20.269656096695147 19.9375,20.42084087127084 20.625,20.523210838950586 21.3125,20.584306545950092 22.0,20.612031660719417 22.6875,20.614309136936996 23.375,20.5987762466682 24.0625,20.57252302935025 24.75,20.541875426731096 25.4375,20.51222174269735 26.125,20.487879229332638 26.8125,20.47199662493935 27.5,20.466488341511752 28.187499999999996,20.47199662493935 28.875,20.487879229332638 29.5625,20.51222174269735 30.250000000000004,20.541875426731096 30.9375,20.57252302935025 31.624999999999996,20.5987762466682 32.3125,20.614309136936996 33.0,20.612031660719417 33.6875,20.584306545950092 34.375,20.523210838950586 35.0625,20.42084087127084 35.75,20.269656096695147 36.4375,20.06285355447963 37.125,19.794760873395127 37.8125,19.4612320644558 38.5,19.060027191744407 39.1875,18.59115468411416 39.875,18.05715384399199 40.5625,17.463295251780526 41.25,16.817678403848014 41.9375,16.131209110776027 42.625,15.417443865988881 43.3125,14.692294409380711 44.0,13.973592787562573 44.6875,13.280524990538723 45.375,12.63294928872972 46.0625,12.050623219880677 46.75,11.55237027820386 47.4375,11.1552232457916 48.125,10.87358533119696 48.8125,10.718452470212256 49.5,10.69674003085153 50.1875,10.810754605681065 50.875,11.057846568231234 51.5625,11.43027176249668 52.25,11.915281377644778 52.9375,12.49544816088985 53.625,13.149225181692934 54.3125,13.851721008606036 55.0,14.575663077574243 55.0,0 " style="fill:none;stroke:#ff0000;stroke-width:0.1"/>
<polyline points="6.875,0 6.875,5.43679266559848 " style="fill:none;stroke:#ff0000;stroke-width:0.1"/>
<polyline points="13.75,0 13.75,8.408839201924007 " style="fill:none;stroke:#ff0000;stroke-width:0.1"/>
<polyline points="20.625,0 20.625,10.261605419475293 " style="fill:none;stroke:#ff0000;stroke-width:0.1"/>
<polyline points="27.5,0 27.5,10.233244170755876 " style="fill:none;stroke:#ff0000;stroke-width:0.1"/>
<polyline points="34.375,0 34.375,10.261605419475293 " style="fill:none;stroke:#ff0000;stroke-width:0.1"/>
<polyline points="41.25,0 41.25,8.408839201924007 " style="fill:none;stroke:#ff0000;stroke-width:0.1"/>
<polyline points="48.125,0 48.125,5.43679266559848 " style="fill:none;stroke:#ff0000;stroke-width:0.1"/>
<polyline points="55.0,0 55.0,7.287831538787121 " style="fill:none;stroke:#ff0000;stroke-width:0.1"/>
</g>
</g>
<g transform="translate(55.0,0)"
><g><polygon points="0.0,0 0.0,14.575663077574243 0.6875,13.851721008606036 1.375,13.149225181692934 2.0625,12.49544816088985 2.75,11.915281377644778 3.4375,11.43027176249668 4.125,11.057846568231234 4.8125,10.810754605681065 5.5,10.69674003085153 6.1875,10.718452470212256 6.875,10.87358533119696 7.562500000000001,11.1552232457916 8.25,11.55237027820386 8.9375,12.050623219880677 9.625,12.63294928872972 10.3125,13.280524990538723 11.0,13.973592787562573 11.6875,14.692294409380711 12.375,15.417443865988881 13.0625,16.131209110776027 13.75,16.817678403848014 14.4375,17.463295251780526 15.125000000000002,18.05715384399199 15.812499999999998,18.59115468411416 16.5,19.060027191744407 17.1875,19.4612320644558 17.875,19.794760873395127 18.5625,20.06285355447963 19.25,20.269656096695147 19.9375,20.42084087127084 20.625,20.523210838950586 21.3125,20.584306545950092 22.0,20.612031660719417 22.6875,20.614309136936996 23.375,20.5987762466682 24.0625,20.57252302935025 24.75,20.541875426731096 25.4375,20.51222174269735 26.125,20.487879229332638 26.8125,20.47199662493935 27.5,20.466488341511752 28.187499999999996,20.47199662493935 28.875,20.487879229332638 29.5625,20.51222174269735 30.250000000000004,20.541875426731096 30.9375,20.57252302935025 31.624999999999996,20.5987762466682 32.3125,20.614309136936996 33.0,20.612031660719417 33.6875,20.584306545950092 34.375,20.523210838950586 35.0625,20.42084087127084 35.75,20.269656096695147 36.4375,20.06285355447963 37.125,19.794760873395127 37.8125,19.4612320644558 38.5,19.060027191744407 39.1875,18.59115468411416 39.875,18.05715384399199 40.5625,17.463295251780526 41.25,16.817678403848014 41.9375,16.131209110776027 42.625,15.417443865988881 43.3125,14.692294409380711 44.0,13.973592787562573 44.6875,13.280524990538723 45.375,12.63294928872972 46.0625,12.050623219880677 46.75,11.55237027820386 47.4375,11.1552232457916 48.125,10.87358533119696 48.8125,10.718452470212256 49.5,10.69674003085153 50.1875,10.810754605681065 50.875,11.057846568231234 51.5625,11.43027176249668 52.25,11.915281377644778 52.9375,12.49544816088985 53.625,13.149225181692934 54.3125,13.851721008606036 55.0,14.575663077574243 55.0,0 " style="fill:none;stroke:#ff0000;stroke-width:0.1"/>
<polyline points="6.875,10.87358533119696 6.875,5.43679266559848 " style="fill:none;stroke:#ff0000;stroke-width:0.1"/>
<polyline points="13.75,16.817678403848014 13.75,8.408839201924007 " style="fill:none;stroke:#ff0000;stroke-width:0.1"/>
<polyline points="20.625,20.523210838950586 20.625,10.261605419475293 " style="fill:none;stroke:#ff0000;stroke-width:0.1"/>
<polyline points="27.5,20.466488341511752 27.5,10.233244170755876 " style="fill:none;stroke:#ff0000;stroke-width:0.1"/>
<polyline points="34.375,20.523210838950586 34.375,10.261605419475293 " style="fill:none;stroke:#ff0000;stroke-width:0.1"/>
<polyline points="41.25,16.817678403848014 41.25,8.408839201924007 " style="fill:none;stroke:#ff0000;stroke-width:0.1"/>
<polyline points="48.125,10.87358533119696 48.125,5.43679266559848 " style="fill:none;stroke:#ff0000;stroke-width:0.1"/>
<polyline points="55.0,14.575663077574243 55.0,7.287831538787121 " style="fill:none;stroke:#ff0000;stroke-width:0.1"/>
</g>
</g>
<g><polygon points="0.0,0 0.0,10.842755837712904 0.6875,10.69472395050304 1.375,10.748078678254188 2.0625,11.005196204805749 2.75,11.458568146186924 3.4375,12.091153936234893 4.125,12.87721627476039 4.8125,13.783591391043673 5.5,14.771322843383704 6.1875,15.797568714814082 6.875,16.817678403848014 7.562500000000001,17.787327470693878 8.25,18.664597562792622 8.9375,19.41189332345145 9.625,19.99759903559603 10.3125,20.397393880755672 11.0,20.595165114872266 11.6875,20.583481952450732 12.375,20.363618118665364 13.0625,19.94513640209285 13.75,19.345072649431962 14.4375,18.586778108536365 15.125000000000002,17.698496638234637 15.812499999999998,16.71176609368674 16.5,15.659740490602932 17.1875,14.575531009340214 17.875,13.490659529600899 18.5625,12.433708543788672 19.25,11.429236660310298 19.9375,10.497010435121858 20.625,9.651582138544812 21.3125,8.902220600462513 22.0,8.253179872975439 22.6875,7.704269480420878 23.375,7.251671766815217 24.0625,6.8889373976562815 24.75,6.608080281414893 25.4375,6.400688607452735 26.125,6.258969586983089 26.8125,6.176651728507935 27.5,6.149679644014331 28.187499999999996,6.176651728507935 28.875,6.258969586983089 29.5625,6.400688607452735 30.250000000000004,6.608080281414893 30.9375,6.8889373976562815 31.624999999999996,7.251671766815217 32.3125,7.704269480420878 33.0,8.253179872975439 33.6875,8.902220600462513 34.375,9.651582138544812 35.0625,10.497010435121858 35.75,11.429236660310298 36.4375,12.433708543788672 37.125,13.490659529600899 37.8125,14.575531009340214 38.5,15.659740490602932 39.1875,16.71176609368674 39.875,17.698496638234637 40.5625,18.586778108536365 41.25,19.345072649431962 41.9375,19.94513640209285 42.625,20.363618118665364 43.3125,20.583481952450732 44.0,20.595165114872266 44.6875,20.397393880755672 45.375,19.99759903559603 46.0625,19.41189332345145 46.75,18.664597562792622 47.4375,17.787327470693878 48.125,16.817678403848014 48.8125,15.797568714814082 49.5,14.771322843383704 50.1875,13.783591391043673 50.875,12.87721627476039 51.5625,12.091153936234893 52.25,11.458568146186924 52.9375,11.005196204805749 53.625,10.748078678254188 54.3125,10.69472395050304 55.0,10.842755837712904 55.0,0 " style="fill:none;stroke:#ff0000;stroke-width:0.1"/>
<polyline points="6.875,16.817678403848014 6.875,8.408839201924007 " style="fill:none;stroke:#ff0000;stroke-width:0.1"/>
<polyline points="13.75,19.345072649431962 13.75,9.672536324715981 " style="fill:none;stroke:#ff0000;stroke-width:0.1"/>
<polyline points="20.625,9.651582138544812 20.625,4.825791069272406 " style="fill:none;stroke:#ff0000;stroke-width:0.1"/>
<polyline points="27.5,6.149679644014331 27.5,3.0748398220071653 " style="fill:none;stroke:#ff0000;stroke-width:0.1"/>
<polyline points="34.375,9.651582138544812 34.375,4.825791069272406 " style="fill:none;stroke:#ff0000;stroke-width:0.1"/>
<polyline points="41.25,19.345072649431962 41.25,9.672536324715981 " style="fill:none;stroke:#ff0000;stroke-width:0.1"/>
<polyline points="48.125,16.817678403848014 48.125,8.408839201924007 " style="fill:none;stroke:#ff0000;stroke-width:0.1"/>
<polyline points="55.0,10.842755837712904 55.0,5.421377918856452 " style="fill:none;stroke:#ff0000;stroke-width:0.1"/>
</g>
</g>
<g transform="translate(0,0.0)">
<g transform="translate(165.0,0)"
><g><polygon points="0.0,0 0.0,14.575663077574243 0.6875,13.851721008606036 1.375,13.149225181692934 2.0625,12.49544816088985 2.75,11.915281377644778 3.4375,11.43027176249668 4.125,11.057846568231234 4.8125,10.810754605681065 5.5,10.69674003085153 6.1875,10.718452470212256 6.875,10.87358533119696 7.562500000000001,11.1552232457916 8.25,11.55237027820386 8.9375,12.050623219880677 9.625,12.63294928872972 10.3125,13.280524990538723 11.0,13.973592787562573 11.6875,14.692294409380711 12.375,15.417443865988881 13.0625,16.131209110776027 13.75,16.817678403848014 14.4375,17.463295251780526 15.125000000000002,18.05715384399199 15.812499999999998,18.59115468411416 16.5,19.060027191744407 17.1875,19.4612320644558 17.875,19.794760873395127 18.5625,20.06285355447963 19.25,20.269656096695147 19.9375,20.42084087127084 20.625,20.523210838950586 21.3125,20.584306545950092 22.0,20.612031660719417 22.6875,20.614309136936996 23.375,20.5987762466682 24.0625,20.57252302935025 24.75,20.541875426731096 25.4375,20.51222174269735 26.125,20.487879229332638 26.8125,20.47199662493935 27.5,20.466488341511752 28.187499999999996,20.47199662493935 28.875,20.487879229332638 29.5625,20.51222174269735 30.250000000000004,20.541875426731096 30.9375,20.57252302935025 31.624999999999996,20.5987762466682 32.3125,20.614309136936996 33.0,20.612031660719417 33.6875,20.584306545950092 34.375,20.523210838950586 35.0625,20.42084087127084 35.75,20.269656096695147 36.4375,20.06285355447963 37.125,19.794760873395127 37.8125,19.4612320644558 38.5,19.060027191744407 39.1875,18.59115468411416 39.875,18.05715384399199 40.5625,17.463295251780526 41.25,16.817678403848014 41.9375,16.131209110776027 42.625,15.417443865988881 43.3125,14.692294409380711 44.0,13.973592787562573 44.6875,13.280524990538723 45.375,12.63294928872972 46.0625,12.050623219880677 46.75,11.55237027820386 47.4375,11.1552232457916 48.125,10.87358533119696 48.8125,10.718452470212256 49.5,10.69674003085153 50.1875,10.810754605681065 50.875,11.057846568231234 51.5625,11.43027176249668 52.25,11.915281377644778 52.9375,12.49544816088985 53.625,13.149225181692934 54.3125,13.851721008606036 55.0,14.575663077574243 55.0,0 " style="fill:none;stroke:#ff0000;stroke-width:0.1"/>
<polyline points="6.875,0 6.875,5.43679266559848 " style="fill:none;stroke:#ff0000;stroke-width:0.1"/>
<polyline points="13.75,0 13.75,8.408839201924007 " style="fill:none;stroke:#ff0000;stroke-width:0.1"/>
<polyline points="20.625,0 20.625,10.261605419475293 " style="fill:none;stroke:#ff0000;stroke-width:0.1"/>
<polyline points="27.5,0 27.5,10.233244170755876 " style="fill:none;stroke:#ff0000;stroke-width:0.1"/>
<polyline points="34.375,0 34.375,10.261605419475293 " style="fill:none;stroke:#ff0000;stroke-width:0.1"/>
<polyline points="41.25,0 41.25,8.408839201924007 " style="fill:none;stroke:#ff0000;stroke-width:0.1"/>
<polyline points="48.125,0 48.125,5.43679266559848 " style="fill:none;stroke:#ff0000;stroke-width:0.1"/>
<polyline points="55.0,0 55.0,7.287831538787121 " style="fill:none;stroke:#ff0000;stroke-width:0.1"/>
</g>
</g>
<g transform="translate(110.0,0)"
><g><polygon points="0.0,0 0.0,10.842755837712904 0.6875,10.69472395050304 1.375,10.748078678254188 2.0625,11.005196204805749 2.75,11.458568146186924 3.4375,12.091153936234893 4.125,12.87721627476039 4.8125,13.783591391043673 5.5,14.771322843383704 6.1875,15.797568714814082 6.875,16.817678403848014 7.562500000000001,17.787327470693878 8.25,18.664597562792622 8.9375,19.41189332345145 9.625,19.99759903559603 10.3125,20.397393880755672 11.0,20.595165114872266 11.6875,20.583481952450732 12.375,20.363618118665364 13.0625,19.94513640209285 13.75,19.345072649431962 14.4375,18.586778108536365 15.125000000000002,17.698496638234637 15.812499999999998,16.71176609368674 16.5,15.659740490602932 17.1875,14.575531009340214 17.875,13.490659529600899 18.5625,12.433708543788672 19.25,11.429236660310298 19.9375,10.497010435121858 20.625,9.651582138544812 21.3125,8.902220600462513 22.0,8.253179872975439 22.6875,7.704269480420878 23.375,7.251671766815217 24.0625,6.8889373976562815 24.75,6.608080281414893 25.4375,6.400688607452735 26.125,6.258969586983089 26.8125,6.176651728507935 27.5,6.149679644014331 28.187499999999996,6.176651728507935 28.875,6.258969586983089 29.5625,6.400688607452735 30.250000000000004,6.608080281414893 30.9375,6.8889373976562815 31.624999999999996,7.251671766815217 32.3125,7.704269480420878 33.0,8.253179872975439 33.6875,8.902220600462513 34.375,9.651582138544812 35.0625,10.497010435121858 35.75,11.429236660310298 36.4375,12.433708543788672 37.125,13.490659529600899 37.8125,14.575531009340214 38.5,15.659740490602932 39.1875,16.71176609368674 39.875,17.698496638234637 40.5625,18.586778108536365 41.25,19.345072649431962 41.9375,19.94513640209285 42.625,20.363618118665364 43.3125,20.583481952450732 44.0,20.595165114872266 44.6875,20.397393880755672 45.375,19.99759903559603 46.0625,19.41189332345145 46.75,18.664597562792622 47.4375,17.787327470693878 48.125,16.817678403848014 48.8125,15.797568714814082 49.5,14.771322843383704 50.1875,13.783591391043673 50.875,12.87721627476039 51.5625,12.091153936234893 52.25,11.458568146186924 52.9375,11.005196204805749 53.625,10.748078678254188 54.3125,10.69472395050304 55.0,10.842755837712904 55.0,0 " style="fill:none;stroke:#ff0000;stroke-width:0.1"/>
<polyline points="6.875,0 6.875,8.408839201924007 " style="fill:none;stroke:#ff0000;stroke-width:0.1"/>
<polyline points="13.75,0 13.75,9.672536324715981 " style="fill:none;stroke:#ff0000;stroke-width:0.1"/>
<polyline points="20.625,0 20.625,4.825791069272406 " style="fill:none;stroke:#ff0000;stroke-width:0.1"/>
<polyline points="27.5,0 27.5,3.0748398220071653 " style="fill:none;stroke:#ff0000;stroke-width:0.1"/>
<polyline points="34.375,0 34.375,4.825791069272406 " style="fill:none;stroke:#ff0000;stroke-width:0.1"/>
<polyline points="41.25,0 41.25,9.672536324715981 " style="fill:none;stroke:#ff0000;stroke-width:0.1"/>
<polyline points="48.125,0 48.125,8.408839201924007 " style="fill:none;stroke:#ff0000;stroke-width:0.1"/>
<polyline points="55.0,0 55.0,5.421377918856452 " style="fill:none;stroke:#ff0000;stroke-width:0.1"/>
</g>
</g>
<g transform="translate(55.0,0)"
><g><polygon points="0.0,0 0.0,11.42850390506546 0.6875,12.132254463819939 1.375,13.029869317095306 2.0625,14.07759187537682 2.75,15.22129553997953 3.4375,16.399163056400432 4.125,17.544876672533718 4.8125,18.59115468411416 5.5,19.473446925093615 6.1875,20.133588737853344 6.875,20.523210838950586 7.562500000000001,20.606711584692228 8.25,20.363618118665364 8.9375,19.790192818737477 9.625,18.900179853398516 10.3125,17.724631514009587 11.0,16.310802931142682 11.6875,14.720154171758292 12.375,13.025547796956124 13.0625,11.307775022356072 13.75,9.651582138544812 14.4375,8.14139862231605 15.125000000000002,6.856987661808629 15.812499999999998,5.86924744846801 16.5,5.236387002305753 17.1875,5.000683604808463 17.875,5.186000890736585 18.5625,5.796208697618271 19.25,6.814599846473592 19.9375,8.204347537108042 20.625,9.909992716437413 21.3125,11.859896523610182 22.0,13.969541652423134 22.6875,16.145520977299846 23.375,18.290014545025855 24.0625,20.30552908784814 24.75,22.099659064090332 25.4375,23.58962574784466 26.125,24.70636125569393 26.8125,25.397927107926996 27.5,25.63209079826036 28.187499999999996,25.397927107926996 28.875,24.70636125569393 29.5625,23.58962574784466 30.250000000000004,22.099659064090332 30.9375,20.30552908784814 31.624999999999996,18.290014545025855 32.3125,16.145520977299846 33.0,13.969541652423134 33.6875,11.859896523610182 34.375,9.909992716437413 35.0625,8.204347537108042 35.75,6.814599846473592 36.4375,5.796208697618271 37.125,5.186000890736585 37.8125,5.000683604808463 38.5,5.236387002305753 39.1875,5.86924744846801 39.875,6.856987661808629 40.5625,8.14139862231605 41.25,9.651582138544812 41.9375,11.307775022356072 42.625,13.025547796956124 43.3125,14.720154171758292 44.0,16.310802931142682 44.6875,17.724631514009587 45.375,18.900179853398516 46.0625,19.790192818737477 46.75,20.363618118665364 47.4375,20.606711584692228 48.125,20.523210838950586 48.8125,20.133588737853344 49.5,19.473446925093615 50.1875,18.59115468411416 50.875,17.544876672533718 51.5625,16.399163056400432 52.25,15.22129553997953 52.9375,14.07759187537682 53.625,13.029869317095306 54.3125,12.132254463819939 55.0,11.42850390506546 55.0,0 " style="fill:none;stroke:#ff0000;stroke-width:0.1"/>
<polyline points="6.875,0 6.875,10.261605419475293 " style="fill:none;stroke:#ff0000;stroke-width:0.1"/>
<polyline points="13.75,0 13.75,4.825791069272406 " style="fill:none;stroke:#ff0000;stroke-width:0.1"/>
<polyline points="20.625,0 20.625,4.954996358218707 " style="fill:none;stroke:#ff0000;stroke-width:0.1"/>
<polyline points="27.5,0 27.5,12.81604539913018 " style="fill:none;stroke:#ff0000;stroke-width:0.1"/>
<polyline points="34.375,0 34.375,4.954996358218707 " style="fill:none;stroke:#ff0000;stroke-width:0.1"/>
<polyline points="41.25,0 41.25,4.825791069272406 " style="fill:none;stroke:#ff0000;stroke-width:0.1"/>
<polyline points="48.125,0 48.125,10.261605419475293 " style="fill:none;stroke:#ff0000;stroke-width:0.1"/>
<polyline points="55.0,0 55.0,5.71425195253273 " style="fill:none;stroke:#ff0000;stroke-width:0.1"/>
</g>
</g>
<g><polygon points="0.0,0 0.0,12.357263787030885 0.6875,13.334647852732768 1.375,14.457962056724783 2.0625,15.664820435412508 2.75,16.884446715461912 3.4375,18.041447185207577 4.125,19.060027191744407 4.8125,19.86843176199219 5.5,20.40337075544125 6.1875,20.614181556782952 6.875,20.466488341511752 7.562500000000001,19.94513640209285 8.25,19.056212169314158 8.9375,17.828002950379965 9.625,16.310802931142682 10.3125,14.575531009340214 11.0,12.711188485236393 11.6875,10.821247234397356 12.375,9.019118352250512 13.0625,7.42290413157151 13.75,6.149679644014331 14.4375,5.309581635117423 15.125000000000002,5.0 15.812499999999998,5.300169588784563 16.5,6.266447089360653 17.1875,7.928529663917846 17.875,10.28683009730332 18.5625,13.311169425643534 19.25,16.940884984928243 19.9375,21.086382705979595 20.625,25.63209079826036 21.3125,30.4407013993112 22.0,35.3585209883141 22.6875,40.221692824938884 23.375,44.863008430946905 24.0625,49.11899266872493 24.75,52.83693007300694 25.4375,55.88149974391815 26.125,58.140702438481384 26.8125,59.53079576327043 27.5,60.0 28.187499999999996,59.53079576327043 28.875,58.140702438481384 29.5625,55.88149974391815 30.250000000000004,52.83693007300694 30.9375,49.11899266872493 31.624999999999996,44.863008430946905 32.3125,40.221692824938884 33.0,35.3585209883141 33.6875,30.4407013993112 34.375,25.63209079826036 35.0625,21.086382705979595 35.75,16.940884984928243 36.4375,13.311169425643534 37.125,10.28683009730332 37.8125,7.928529663917846 38.5,6.266447089360653 39.1875,5.300169588784563 39.875,5.0 40.5625,5.309581635117423 41.25,6.149679644014331 41.9375,7.42290413157151 42.625,9.019118352250512 43.3125,10.821247234397356 44.0,12.711188485236393 44.6875,14.575531009340214 45.375,16.310802931142682 46.0625,17.828002950379965 46.75,19.056212169314158 47.4375,19.94513640209285 48.125,20.466488341511752 48.8125,20.614181556782952 49.5,20.40337075544125 50.1875,19.86843176199219 50.875,19.060027191744407 51.5625,18.041447185207577 52.25,16.884446715461912 52.9375,15.664820435412508 53.625,14.457962056724783 54.3125,13.334647852732768 55.0,12.357263787030885 55.0,0 " style="fill:none;stroke:#ff0000;stroke-width:0.1"/>
<polyline points="6.875,0 6.875,10.233244170755876 " style="fill:none;stroke:#ff0000;stroke-width:0.1"/>
<polyline points="13.75,0 13.75,3.0748398220071653 " style="fill:none;stroke:#ff0000;stroke-width:0.1"/>
<polyline points="20.625,0 20.625,12.81604539913018 " style="fill:none;stroke:#ff0000;stroke-width:0.1"/>
<polyline points="27.5,0 27.5,30.0 " style="fill:none;stroke:#ff0000;stroke-width:0.1"/>
<polyline points="34.375,0 34.375,12.81604539913018 " style="fill:none;stroke:#ff0000;stroke-width:0.1"/>
<polyline points="41.25,0 41.25,3.0748398220071653 " style="fill:none;stroke:#ff0000;stroke-width:0.1"/>
<polyline points="48.125,0 48.125,10.233244170755876 " style="fill:none;stroke:#ff0000;stroke-width:0.1"/>
<polyline points="55.0,0 55.0,6.178631893515442 " style="fill:none;stroke:#ff0000;stroke-width:0.1"/>
</g>
</g>

</g>
</svg>
