<?xml version="1.0" encoding="UTF-8" standalone="no"?>
<svg width="297.0mm" height="210.0mm" viewBox="0 0 297.0 210.0" >
<g transform="translate(11.0,15.0)">
<g transform="translate(0,120.0)">
<g transform="translate(220.0,0)"
><g><polygon points="0.0,0 0.0,22.1875 0.6875,22.53125 1.375,22.875 2.0625,23.21875 2.75,23.5625 3.4375,23.90625 4.125,24.25 4.8125,24.59375 5.5,24.9375 6.1875,25.28125 6.875,25.625 7.562500000000001,25.96875 8.25,26.3125 8.9375,26.65625 9.625,27.0 10.3125,27.34375 11.0,27.6875 11.6875,28.03125 12.375,28.375 13.0625,28.71875 13.75,29.0625 14.4375,29.40625 15.125000000000002,29.75 15.812499999999998,30.09375 16.5,30.4375 17.1875,30.78125 17.875,31.125 18.5625,31.46875 19.25,31.8125 19.9375,32.15625 20.625,32.5 21.3125,32.84375 22.0,33.1875 22.6875,33.53125 23.375,33.875 24.0625,34.21875 24.75,34.5625 25.4375,34.90625 26.125,35.25 26.8125,35.59375 27.5,35.9375 28.187499999999996,36.28125 28.875,36.625 29.5625,36.96875 30.250000000000004,37.3125 30.9375,37.65625 31.624999999999996,38.0 32.3125,38.34375 33.0,38.6875 33.6875,39.03125 34.375,39.375 35.0625,39.71875 35.75,40.0625 36.4375,40.40625 37.125,40.75 37.8125,41.09375 38.5,41.4375 39.1875,41.78125 39.875,42.125 40.5625,42.46875 41.25,42.8125 41.9375,43.15625 42.625,43.5 43.3125,43.84375 44.0,44.1875 44.6875,44.53125 45.375,44.875 46.0625,45.21875 46.75,45.5625 47.4375,45.90625 48.125,46.25 48.8125,46.59375 49.5,46.9375 50.1875,47.28125 50.875,47.625 51.5625,47.96875 52.25,48.3125 52.9375,48.65625 53.625,49.0 54.3125,49.34375 55.0,49.6875 55.0,0 " style="fill:none;stroke:#ff0000;stroke-width:0.1"/>
<polyline points="6.875,25.625 6.875,12.8125 " style="fill:none;stroke:#ff0000;stroke-width:0.1"/>
<polyline points="13.75,29.0625 13.75,14.53125 " style="fill:none;stroke:#ff0000;stroke-width:0.1"/>
<polyline points="20.625,32.5 20.625,16.25 " style="fill:none;stroke:#ff0000;stroke-width:0.1"/>
<polyline points="27.5,35.9375 27.5,17.96875 " style="fill:none;stroke:#ff0000;stroke-width:0.1"/>
<polyline points="34.375,39.375 34.375,19.6875 " style="fill:none;stroke:#ff0000;stroke-width:0.1"/>
<polyline points="41.25,42.8125 41.25,21.40625 " style="fill:none;stroke:#ff0000;stroke-width:0.1"/>
<polyline points="48.125,46.25 48.125,23.125 " style="fill:none;stroke:#ff0000;stroke-width:0.1"/>
<polyline points="55.0,49.6875 55.0,24.84375 " style="fill:none;stroke:#ff0000;stroke-width:0.1"/>
</g>
</g>
<g transform="translate(165.0,0)"
><g><polygon points="0.0,0 0.0,18.75 0.6875,19.09375 1.375,19.4375 2.0625,19.78125 2.75,20.125 3.4375,20.46875 4.125,20.8125 4.8125,21.15625 5.5,21.5 6.1875,21.84375 6.875,22.1875 7.562500000000001,22.53125 8.25,22.875 8.9375,23.21875 9.625,23.5625 10.3125,23.90625 11.0,24.25 11.6875,24.59375 12.375,24.9375 13.0625,25.28125 13.75,25.625 14.4375,25.96875 15.125000000000002,26.3125 15.812499999999998,26.65625 16.5,27.0 17.1875,27.34375 17.875,27.6875 18.5625,28.03125 19.25,28.375 19.9375,28.71875 20.625,29.0625 21.3125,29.40625 22.0,29.75 22.6875,30.09375 23.375,30.4375 24.0625,30.78125 24.75,31.125 25.4375,31.46875 26.125,31.8125 26.8125,32.15625 27.5,32.5 28.187499999999996,32.84375 28.875,33.1875 29.5625,33.53125 30.250000000000004,33.875 30.9375,34.21875 31.624999999999996,34.5625 32.3125,34.90625 33.0,35.25 33.6875,35.59375 34.375,35.9375 35.0625,36.28125 35.75,36.625 36.4375,36.96875 37.125,37.3125 37.8125,37.65625 38.5,38.0 39.1875,38.34375 39.875,38.6875 40.5625,39.03125 41.25,39.375 41.9375,39.71875 42.625,40.0625 43.3125,40.40625 44.0,40.75 44.6875,41.09375 45.375,41.4375 46.0625,41.78125 46.75,42.125 47.4375,42.46875 48.125,42.8125 48.8125,43.15625 49.5,43.5 50.1875,43.84375 50.875,44.1875 51.5625,44.53125 52.25,44.875 52.9375,45.21875 53.625,45.5625 54.3125,45.90625 55.0,46.25 55.0,0 " style="fill:none;stroke:#ff0000;stroke-width:0.1"/>
<polyline points="6.875,22.1875 6.875,11.09375 " style="fill:none;stroke:#ff0000;stroke-width:0.1"/>
<polyline points="13.75,25.625 13.75,12.8125 " style="fill:none;stroke:#ff0000;stroke-width:0.1"/>
<polyline points="20.625,29.0625 20.625,14.53125 " style="fill:none;stroke:#ff0000;stroke-width:0.1"/>
<polyline points="27.5,32.5 27.5,16.25 " style="fill:none;stroke:#ff0000;stroke-width:0.1"/>
<polyline points="34.375,35.9375 34.375,17.96875 " style="fill:none;stroke:#ff0000;stroke-width:0.1"/>
<polyline points="41.25,39.375 41.25,19.6875 " style="fill:none;stroke:#ff0000;stroke-width:0.1"/>
<polyline points="48.125,42.8125 48.125,21.40625 " style="fill:none;stroke:#ff0000;stroke-width:0.1"/>
<polyline points="55.0,46.25 55.0,23.125 " style="fill:none;stroke:#ff0000;stroke-width:0.1"/>
</g>
</g>
<g transform="translate(110.0,0)"
><g><polygon points="0.0,0 0.0,15.3125 0.6875,15.65625 1.375,16.0 2.0625,16.34375 2.75,16.6875 3.4375,17.03125 4.125,17.375 4.8125,17.71875 5.5,18.0625 6.1875,18.40625 6.875,18.75 7.562500000000001,19.09375 8.25,19.4375 8.9375,19.78125 9.625,20.125 10.3125,20.46875 11.0,20.8125 11.6875,21.15625 12.375,21.5 13.0625,21.84375 13.75,22.1875 14.4375,22.53125 15.125000000000002,22.875 15.812499999999998,23.21875 16.5,23.5625 17.1875,23.90625 17.875,24.25 18.5625,24.59375 19.25,24.9375 19.9375,25.28125 20.625,25.625 21.3125,25.96875 22.0,26.3125 22.6875,26.65625 23.375,27.0 24.0625,27.34375 24.75,27.6875 25.4375,28.03125 26.125,28.375 26.8125,28.71875 27.5,29.0625 28.187499999999996,29.40625 28.875,29.75 29.5625,30.09375 30.250000000000004,30.4375 30.9375,30.78125 31.624999999999996,31.125 32.3125,31.46875 33.0,31.8125 33.6875,32.15625 34.375,32.5 35.0625,32.84375 35.75,33.1875 36.4375,33.53125 37.125,33.875 37.8125,34.21875 38.5,34.5625 39.1875,34.90625 39.875,35.25 40.5625,35.59375 41.25,35.9375 41.9375,36.28125 42.625,36.625 43.3125,36.96875 44.0,37.3125 44.6875,37.65625 45.375,38.0 46.0625,38.34375 46.75,38.6875 47.4375,39.03125 48.125,39.375 48.8125,39.71875 49.5,40.0625 50.1875,40.40625 50.875,40.75 51.5625,41.09375 52.25,41.4375 52.9375,41.78125 53.625,42.125 54.3125,42.46875 55.0,42.8125 55.0,0 " style="fill:none;stroke:#ff0000;stroke-width:0.1"/>
<polyline points="6.875,18.75 6.875,9.375 " style="fill:none;stroke:#ff0000;stroke-width:0.1"/>
<polyline points="13.75,22.1875 13.75,11.09375 " style="fill:none;stroke:#ff0000;stroke-width:0.1"/>
<polyline points="20.625,25.625 20.625,12.8125 " style="fill:none;stroke:#ff0000;stroke-width:0.1"/>
<polyline points="27.5,29.0625 27.5,14.53125 " style="fill:none;stroke:#ff0000;stroke-width:0.1"/>
<polyline points="34.375,32.5 34.375,16.25 " style="fill:none;stroke:#ff0000;stroke-width:0.1"/>
<polyline points="41.25,35.9375 41.25,17.96875 " style="fill:none;stroke:#ff0000;stroke-width:0.1"/>
<polyline points="48.125,39.375 48.125,19.6875 " style="fill:none;stroke:#ff0000;stroke-width:0.1"/>
<polyline points="55.0,42.8125 55.0,21.40625 " style="fill:none;stroke:#ff0000;stroke-width:0.1"/>
</g>
</g>
<g transform="translate(55.0,0)"
><g><polygon points="0.0,0 0.0,11.875 0.6875,12.21875 1.375,12.5625 2.0625,12.90625 2.75,13.25 3.4375,13.59375 4.125,13.9375 4.8125,14.28125 5.5,14.625 6.1875,14.96875 6.875,15.3125 7.562500000000001,15.65625 8.25,16.0 8.9375,16.34375 9.625,16.6875 10.3125,17.03125 11.0,17.375 11.6875,17.71875 12.375,18.0625 13.0625,18.40625 13.75,18.75 14.4375,19.09375 15.125000000000002,19.4375 15.812499999999998,19.78125 16.5,20.125 17.1875,20.46875 17.875,20.8125 18.5625,21.15625 19.25,21.5 19.9375,21.84375 20.625,22.1875 21.3125,22.53125 22.0,22.875 22.6875,23.21875 23.375,23.5625 24.0625,23.90625 24.75,24.25 25.4375,24.59375 26.125,24.9375 26.8125,25.28125 27.5,25.625 28.187499999999996,25.96875 28.875,26.3125 29.5625,26.65625 30.250000000000004,27.0 30.9375,27.34375 31.624999999999996,27.6875 32.3125,28.03125 33.0,28.375 33.6875,28.71875 34.375,29.0625 35.0625,29.40625 35.75,29.75 36.4375,30.09375 37.125,30.4375 37.8125,30.78125 38.5,31.125 39.1875,31.46875 39.875,31.8125 40.5625,32.15625 41.25,32.5 41.9375,32.84375 42.625,33.1875 43.3125,33.53125 44.0,33.875 44.6875,34.21875 45.375,34.5625 46.0625,34.90625 46.75,35.25 47.4375,35.59375 48.125,35.9375 48.8125,36.28125 49.5,36.625 50.1875,36.96875 50.875,37.3125 51.5625,37.65625 52.25,38.0 52.9375,38.34375 53.625,38.6875 54.3125,39.03125 55.0,39.375 55.0,0 " style="fill:none;stroke:#ff0000;stroke-width:0.1"/>
<polyline points="6.875,15.3125 6.875,7.65625 " style="fill:none;stroke:#ff0000;stroke-width:0.1"/>
<polyline points="13.75,18.75 13.75,9.375 " style="fill:none;stroke:#ff0000;stroke-width:0.1"/>
<polyline points="20.625,22.1875 20.625,11.09375 " style="fill:none;stroke:#ff0000;stroke-width:0.1"/>
<polyline points="27.5,25.625 27.5,12.8125 " style="fill:none;stroke:#ff0000;stroke-width:0.1"/>
<polyline points="34.375,29.0625 34.375,14.53125 " style="fill:none;stroke:#ff0000;stroke-width:0.1"/>
<polyline points="41.25,32.5 41.25,16.25 " style="fill:none;stroke:#ff0000;stroke-width:0.1"/>
<polyline points="48.125,35.9375 48.125,17.96875 " style="fill:none;stroke:#ff0000;stroke-width:0.1"/>
<polyline points="55.0,39.375 55.0,19.6875 " style="fill:none;stroke:#ff0000;stroke-width:0.1"/>
</g>
</g>
<g transform="translate(0.0,0)"
><g><polygon points="0.0,0 0.0,8.4375 0.6875,8.78125 1.375,9.125 2.0625,9.46875 2.75,9.8125 3.4375,10.15625 4.125,10.5 4.8125,10.84375 5.5,11.1875 6.1875,11.53125 6.875,11.875 7.562500000000001,12.21875 8.25,12.5625 8.9375,12.90625 9.625,13.25 10.3125,13.59375 11.0,13.9375 11.6875,14.28125 12.375,14.625 13.0625,14.96875 13.75,15.3125 14.4375,15.65625 15.125000000000002,16.0 15.812499999999998,16.34375 16.5,16.6875 17.1875,17.03125 17.875,17.375 18.5625,17.71875 19.25,18.0625 19.9375,18.40625 20.625,18.75 21.3125,19.09375 22.0,19.4375 22.6875,19.78125 23.375,20.125 24.0625,20.46875 24.75,20.8125 25.4375,21.15625 26.125,21.5 26.8125,21.84375 27.5,22.1875 28.187499999999996,22.53125 28.875,22.875 29.5625,23.21875 30.250000000000004,23.5625 30.9375,23.90625 31.624999999999996,24.25 32.3125,24.59375 33.0,24.9375 33.6875,25.28125 34.375,25.625 35.0625,25.96875 35.75,26.3125 36.4375,26.65625 37.125,27.0 37.8125,27.34375 38.5,27.6875 39.1875,28.03125 39.875,28.375 40.5625,28.71875 41.25,29.0625 41.9375,29.40625 42.625,29.75 43.3125,30.09375 44.0,30.4375 44.6875,30.78125 45.375,31.125 46.0625,31.46875 46.75,31.8125 47.4375,32.15625 48.125,32.5 48.8125,32.84375 49.5,33.1875 50.1875,33.53125 50.875,33.875 51.5625,34.21875 52.25,34.5625 52.9375,34.90625 53.625,35.25 54.3125,35.59375 55.0,35.9375 55.0,0 " style="fill:none;stroke:#ff0000;stroke-width:0.1"/>
<polyline points="6.875,11.875 6.875,5.9375 " style="fill:none;stroke:#ff0000;stroke-width:0.1"/>
<polyline points="13.75,15.3125 13.75,7.65625 " style="fill:none;stroke:#ff0000;stroke-width:0.1"/>
<polyline points="20.625,18.75 20.625,9.375 " style="fill:none;stroke:#ff0000;stroke-width:0.1"/>
<polyline points="27.5,22.1875 27.5,11.09375 " style="fill:none;stroke:#ff0000;stroke-width:0.1"/>
<polyline points="34.375,25.625 34.375,12.8125 " style="fill:none;stroke:#ff0000;stroke-width:0.1"/>
<polyline points="41.25,29.0625 41.25,14.53125 " style="fill:none;stroke:#ff0000;stroke-width:0.1"/>
<polyline points="48.125,32.5 48.125,16.25 " style="fill:none;stroke:#ff0000;stroke-width:0.1"/>
<polyline points="55.0,35.9375 55.0,17.96875 " style="fill:none;stroke:#ff0000;stroke-width:0.1"/>
</g>
</g>

</g>
<g transform="translate(0,60.0)">
<g transform="translate(220.0,0)"
><g><polygon points="0.0,0 0.0,15.3125 0.6875,15.65625 1.375,16.0 2.0625,16.34375 2.75,16.6875 3.4375,17.03125 4.125,17.375 4.8125,17.71875 5.5,18.0625 6.1875,18.40625 6.875,18.75 7.562500000000001,19.09375 8.25,19.4375 8.9375,19.78125 9.625,20.125 10.3125,20.46875 11.0,20.8125 11.6875,21.15625 12.375,21.5 13.0625,21.84375 13.75,22.1875 14.4375,22.53125 15.125000000000002,22.875 15.812499999999998,23.21875 16.5,23.5625 17.1875,23.90625 17.875,24.25 18.5625,24.59375 19.25,24.9375 19.9375,25.28125 20.625,25.625 21.3125,25.96875 22.0,26.3125 22.6875,26.65625 23.375,27.0 24.0625,27.34375 24.75,27.6875 25.4375,28.03125 26.125,28.375 26.8125,28.71875 27.5,29.0625 28.187499999999996,29.40625 28.875,29.75 29.5625,30.09375 30.250000000000004,30.4375 30.9375,30.78125 31.624999999999996,31.125 32.3125,31.46875 33.0,31.8125 33.6875,32.15625 34.375,32.5 35.0625,32.84375 35.75,33.1875 36.4375,33.53125 37.125,33.875 37.8125,34.21875 38.5,34.5625 39.1875,34.90625 39.875,35.25 40.5625,35.59375 41.25,35.9375 41.9375,36.28125 42.625,36.625 43.3125,36.96875 44.0,37.3125 44.6875,37.65625 45.375,38.0 46.0625,38.34375 46.75,38.6875 47.4375,39.03125 48.125,39.375 48.8125,39.71875 49.5,40.0625 50.1875,40.40625 50.875,40.75 51.5625,41.09375 52.25,41.4375 52.9375,41.78125 53.625,42.125 54.3125,42.46875 55.0,42.8125 55.0,0 " style="fill:none;stroke:#ff0000;stroke-width:0.1"/>
<polyline points="6.875,0 6.875,9.375 " style="fill:none;stroke:#ff0000;stroke-width:0.1"/>
<polyline points="13.75,0 13.75,11.09375 " style="fill:none;stroke:#ff0000;stroke-width:0.1"/>
<polyline points="20.625,0 20.625,12.8125 " style="fill:none;stroke:#ff0000;stroke-width:0.1"/>
<polyline points="27.5,0 27.5,14.53125 " style="fill:none;stroke:#ff0000;stroke-width:0.1"/>
<polyline points="34.375,0 34.375,16.25 " style="fill:none;stroke:#ff0000;stroke-width:0.1"/>
<polyline points="41.25,0 41.25,17.96875 " style="fill:none;stroke:#ff0000;stroke-width:0.1"/>
<polyline points="48.125,0 48.125,19.6875 " style="fill:none;stroke:#ff0000;stroke-width:0.1"/>
<polyline points="55.0,0 55.0,21.40625 " style="fill:none;stroke:#ff0000;stroke-width:0.1"/>
</g>
</g>
<g transform="translate(165.0,0)"
><g><polygon points="0.0,0 0.0,11.875 0.6875,12.21875 1.375,12.5625 2.0625,12.90625 2.75,13.25 3.4375,13.59375 4.125,13.9375 4.8125,14.28125 5.5,14.625 6.1875,14.96875 6.875,15.3125 7.562500000000001,15.65625 8.25,16.0 8.9375,16.34375 9.625,16.6875 10.3125,17.03125 11.0,17.375 11.6875,17.71875 12.375,18.0625 13.0625,18.40625 13.75,18.75 14.4375,19.09375 15.125000000000002,19.4375 15.812499999999998,19.78125 16.5,20.125 17.1875,20.46875 17.875,20.8125 18.5625,21.15625 19.25,21.5 19.9375,21.84375 20.625,22.1875 21.3125,22.53125 22.0,22.875 22.6875,23.21875 23.375,23.5625 24.0625,23.90625 24.75,24.25 25.4375,24.59375 26.125,24.9375 26.8125,25.28125 27.5,25.625 28.187499999999996,25.96875 28.875,26.3125 29.5625,26.65625 30.250000000000004,27.0 30.9375,27.34375 31.624999999999996,27.6875 32.3125,28.03125 33.0,28.375 33.6875,28.71875 34.375,29.0625 35.0625,29.40625 35.75,29.75 36.4375,30.09375 37.125,30.4375 37.8125,30.78125 38.5,31.125 39.1875,31.46875 39.875,31.8125 40.5625,32.15625 41.25,32.5 41.9375,32.84375 42.625,33.1875 43.3125,33.53125 44.0,33.875 44.6875,34.21875 45.375,34.5625 46.0625,34.90625 46.75,35.25 47.4375,35.59375 48.125,35.9375 48.8125,36.28125 49.5,36.625 50.1875,36.96875 50.875,37.3125 51.5625,37.65625 52.25,38.0 52.9375,38.34375 53.625,38.6875 54.3125,39.03125 55.0,39.375 55.0,0 " style="fill:none;stroke:#ff0000;stroke-width:0.1"/>
<polyline points="6.875,0 6.875,7.65625 " style="fill:none;stroke:#ff0000;stroke-width:0.1"/>
<polyline points="13.75,0 13.75,9.375 " style="fill:none;stroke:#ff0000;stroke-width:0.1"/>
<polyline points="20.625,0 20.625,11.09375 " style="fill:none;stroke:#ff0000;stroke-width:0.1"/>
<polyline points="27.5,0 27.5,12.8125 " style="fill:none;stroke:#ff0000;stroke-width:0.1"/>
<polyline points="34.375,0 34.375,14.53125 " style="fill:none;stroke:#ff0000;stroke-width:0.1"/>
<polyline points="41.25,0 41.25,16.25 " style="fill:none;stroke:#ff0000;stroke-width:0.1"/>
<polyline points="48.125,0 48.125,17.96875 " style="fill:none;stroke:#ff0000;stroke-width:0.1"/>
<polyline points="55.0,0 55.0,19.6875 " style="fill:none;stroke:#ff0000;stroke-width:0.1"/>
</g>
</g>
<g transform="translate(110.0,0)"
><g><polygon points="0.0,0 0.0,8.4375 0.6875,8.78125 1.375,9.125 2.0625,9.46875 2.75,9.8125 3.4375,10.15625 4.125,10.5 4.8125,10.84375 5.5,11.1875 6.1875,11.53125 6.875,11.875 7.562500000000001,12.21875 8.25,12.5625 8.9375,12.90625 9.625,13.25 10.3125,13.59375 11.0,13.9375 11.6875,14.28125 12.375,14.625 13.0625,14.96875 13.75,15.3125 14.4375,15.65625 15.125000000000002,16.0 15.812499999999998,16.34375 16.5,16.6875 17.1875,17.03125 17.875,17.375 18.5625,17.71875 19.25,18.0625 19.9375,18.40625 20.625,18.75 21.3125,19.09375 22.0,19.4375 22.6875,19.78125 23.375,20.125 24.0625,20.46875 24.75,20.8125 25.4375,21.15625 26.125,21.5 26.8125,21.84375 27.5,22.1875 28.187499999999996,22.53125 28.875,22.875 29.5625,23.21875 30.250000000000004,23.5625 30.9375,23.90625 31.624999999999996,24.25 32.3125,24.59375 33.0,24.9375 33.6875,25.28125 34.375,25.625 35.0625,25.96875 35.75,26.3125 36.4375,26.65625 37.125,27.0 37.8125,27.34375 38.5,27.6875 39.1875,28.03125 39.875,28.375 40.5625,28.71875 41.25,29.0625 41.9375,29.40625 42.625,29.75 43.3125,30.09375 44.0,30.4375 44.6875,30.78125 45.375,31.125 46.0625,31.46875 46.75,31.8125 47.4375,32.15625 48.125,32.5 48.8125,32.84375 49.5,33.1875 50.1875,33.53125 50.875,33.875 51.5625,34.21875 52.25,34.5625 52.9375,34.90625 53.625,35.25 54.3125,35.59375 55.0,35.9375 55.0,0 " style="fill:none;stroke:#ff0000;stroke-width:0.1"/>
<polyline points="6.875,0 6.875,5.9375 " style="fill:none;stroke:#ff0000;stroke-width:0.1"/>
<polyline points="13.75,0 13.75,7.65625 " style="fill:none;stroke:#ff0000;stroke-width:0.1"/>
<polyline points="20.625,0 20.625,9.375 " style="fill:none;stroke:#ff0000;stroke-width:0.1"/>
<polyline points="27.5,0 27.5,11.09375 " style="fill:none;stroke:#ff0000;stroke-width:0.1"/>
<polyline points="34.375,0 34.375,12.8125 " style="fill:none;stroke:#ff0000;stroke-width:0.1"/>
<polyline points="41.25,0 41.25,14.53125 " style="fill:none;stroke:#ff0000;stroke-width:0.1"/>
<polyline points="48.125,0 48.125,16.25 " style="fill:none;stroke:#ff0000;stroke-width:0.1"/>
<polyline points="55.0,0 55.0,17.96875 " style="fill:none;stroke:#ff0000;stroke-width:0.1"/>
</g>
</g>
<g transform="translate(55.0,0)"
><g><polygon points="0.0,0 0.0,29.0625 0.6875,29.40625 1.375,29.75 2.0625,30.09375 2.75,30.4375 3.4375,30.78125 4.125,31.125 4.8125,31.46875 5.5,31.8125 6.1875,32.15625 6.875,32.5 7.562500000000001,32.84375 8.25,33.1875 8.9375,33.53125 9.625,33.875 10.3125,34.21875 11.0,34.5625 11.6875,34.90625 12.375,35.25 13.0625,35.59375 13.75,35.9375 14.4375,36.28125 15.125000000000002,36.625 15.812499999999998,36.96875 16.5,37.3125 17.1875,37.65625 17.875,38.0 18.5625,38.34375 19.25,38.6875 19.9375,39.03125 20.625,39.375 21.3125,39.71875 22.0,40.0625 22.6875,40.40625 23.375,40.75 24.0625,41.09375 24.75,41.4375 25.4375,41.78125 26.125,42.125 26.8125,42.46875 27.5,42.8125 28.187499999999996,43.15625 28.875,43.5 29.5625,43.84375 30.250000000000004,44.1875 30.9375,44.53125 31.624999999999996,44.875 32.3125,45.21875 33.0,45.5625 33.6875,45.90625 34.375,46.25 35.0625,46.59375 35.75,46.9375 36.4375,47.28125 37.125,47.625 37.8125,47.96875 38.5,48.3125 39.1875,48.65625 39.875,49.0 40.5625,49.34375 41.25,49.6875 41.9375,50.03125 42.625,50.375 43.3125,50.71875 44.0,51.0625 44.6875,51.40625 45.375,51.75 46.0625,52.09375 46.75,52.4375 47.4375,52.78125 48.125,53.125 48.8125,53.46875 49.5,53.8125 50.1875,54.15625 50.875,54.5 51.5625,54.84375 52.25,55.1875 52.9375,55.53125 53.625,55.875 54.3125,56.21875 55.0,56.5625 55.0,0 " style="fill:none;stroke:#ff0000;stroke-width:0.1"/>
<polyline points="6.875,32.5 6.875,16.25 " style="fill:none;stroke:#ff0000;stroke-width:0.1"/>
<polyline points="13.75,35.9375 13.75,17.96875 " style="fill:none;stroke:#ff0000;stroke-width:0.1"/>
<polyline points="20.625,39.375 20.625,19.6875 " style="fill:none;stroke:#ff0000;stroke-width:0.1"/>
<polyline points="27.5,42.8125 27.5,21.40625 " style="fill:none;stroke:#ff0000;stroke-width:0.1"/>
<polyline points="34.375,46.25 34.375,23.125 " style="fill:none;stroke:#ff0000;stroke-width:0.1"/>
<polyline points="41.25,49.6875 41.25,24.84375 " style="fill:none;stroke:#ff0000;stroke-width:0.1"/>
<polyline points="48.125,53.125 48.125,26.5625 " style="fill:none;stroke:#ff0000;stroke-width:0.1"/>
<polyline points="55.0,56.5625 55.0,28.28125 " style="fill:none;stroke:#ff0000;stroke-width:0.1"/>
</g>
</g>
<g><polygon points="0.0,0 0.0,25.625 0.6875,25.96875 1.375,26.3125 2.0625,26.65625 2.75,27.0 3.4375,27.34375 4.125,27.6875 4.8125,28.03125 5.5,28.375 6.1875,28.71875 6.875,29.0625 7.562500000000001,29.40625 8.25,29.75 8.9375,30.09375 9.625,30.4375 10.3125,30.78125 11.0,31.125 11.6875,31.46875 12.375,31.8125 13.0625,32.15625 13.75,32.5 14.4375,32.84375 15.125000000000002,33.1875 15.812499999999998,33.53125 16.5,33.875 17.1875,34.21875 17.875,34.5625 18.5625,34.90625 19.25,35.25 19.9375,35.59375 20.625,35.9375 21.3125,36.28125 22.0,36.625 22.6875,36.96875 23.375,37.3125 24.0625,37.65625 24.75,38.0 25.4375,38.34375 26.125,38.6875 26.8125,39.03125 27.5,39.375 28.187499999999996,39.71875 28.875,40.0625 29.5625,40.40625 30.250000000000004,40.75 30.9375,41.09375 31.624999999999996,41.4375 32.3125,41.78125 33.0,42.125 33.6875,42.46875 34.375,42.8125 35.0625,43.15625 35.75,43.5 36.4375,43.84375 37.125,44.1875 37.8125,44.53125 38.5,44.875 39.1875,45.21875 39.875,45.5625 40.5625,45.90625 41.25,46.25 41.9375,46.59375 42.625,46.9375 43.3125,47.28125 44.0,47.625 44.6875,47.96875 45.375,48.3125 46.0625,48.65625 46.75,49.0 47.4375,49.34375 48.125,49.6875 48.8125,50.03125 49.5,50.375 50.1875,50.71875 50.875,51.0625 51.5625,51.40625 52.25,51.75 52.9375,52.09375 53.625,52.4375 54.3125,52.78125 55.0,53.125 55.0,0 " style="fill:none;stroke:#ff0000;stroke-width:0.1"/>
<polyline points="6.875,29.0625 6.875,14.53125 " style="fill:none;stroke:#ff0000;stroke-width:0.1"/>
<polyline points="13.75,32.5 13.75,16.25 " style="fill:none;stroke:#ff0000;stroke-width:0.1"/>
<polyline points="20.625,35.9375 20.625,17.96875 " style="fill:none;stroke:#ff0000;stroke-width:0.1"/>
<polyline points="27.5,39.375 27.5,19.6875 " style="fill:none;stroke:#ff0000;stroke-width:0.1"/>
<polyline points="34.375,42.8125 34.375,21.40625 " style="fill:none;stroke:#ff0000;stroke-width:0.1"/>
<polyline points="41.25,46.25 41.25,23.125 " style="fill:none;stroke:#ff0000;stroke-width:0.1"/>
<polyline points="48.125,49.6875 48.125,24.84375 " style="fill:none;stroke:#ff0000;stroke-width:0.1"/>
<polyline points="55.0,53.125 55.0,26.5625 " style="fill:none;stroke:#ff0000;stroke-width:0.1"/>
</g>
</g>
<g transform="translate(0,0.0)">
<g transform="translate(165.0,0)"
><g><polygon points="0.0,0 0.0,29.0625 0.6875,29.40625 1.375,29.75 2.0625,30.09375 2.75,30.4375 3.4375,30.78125 4.125,31.125 4.8125,31.46875 5.5,31.8125 6.1875,32.15625 6.875,32.5 7.562500000000001,32.84375 8.25,33.1875 8.9375,33.53125 9.625,33.875 10.3125,34.21875 11.0,34.5625 11.6875,34.90625 12.375,35.25 13.0625,35.59375 13.75,35.9375 14.4375,36.28125 15.125000000000002,36.625 15.812499999999998,36.96875 16.5,37.3125 17.1875,37.65625 17.875,38.0 18.5625,38.34375 19.25,38.6875 19.9375,39.03125 20.625,39.375 21.3125,39.71875 22.0,40.0625 22.6875,40.40625 23.375,40.75 24.0625,41.09375 24.75,41.4375 25.4375,41.78125 26.125,42.125 26.8125,42.46875 27.5,42.8125 28.187499999999996,43.15625 28.875,43.5 29.5625,43.84375 30.250000000000004,44.1875 30.9375,44.53125 31.624999999999996,44.875 32.3125,45.21875 33.0,45.5625 33.6875,45.90625 34.375,46.25 35.0625,46.59375 35.75,46.9375 36.4375,47.28125 37.125,47.625 37.8125,47.96875 38.5,48.3125 39.1875,48.65625 39.875,49.0 40.5625,49.34375 41.25,49.6875 41.9375,50.03125 42.625,50.375 43.3125,50.71875 44.0,51.0625 44.6875,51.40625 45.375,51.75 46.0625,52.09375 46.75,52.4375 47.4375,52.78125 48.125,53.125 48.8125,53.46875 49.5,53.8125 50.1875,54.15625 50.875,54.5 51.5625,54.84375 52.25,55.1875 52.9375,55.53125 53.625,55.875 54.3125,56.21875 55.0,56.5625 55.0,0 " style="fill:none;stroke:#ff0000;stroke-width:0.1"/>
<polyline points="6.875,0 6.875,16.25 " style="fill:none;stroke:#ff0000;stroke-width:0.1"/>
<polyline points="13.75,0 13.75,17.96875 " style="fill:none;stroke:#ff0000;stroke-width:0.1"/>
<polyline points="20.625,0 20.625,19.6875 " style="fill:none;stroke:#ff0000;stroke-width:0.1"/>
<polyline points="27.5,0 27.5,21.40625 " style="fill:none;stroke:#ff0000;stroke-width:0.1"/>
<polyline points="34.375,0 34.375,23.125 " style="fill:none;stroke:#ff0000;stroke-width:0.1"/>
<polyline points="41.25,0 41.25,24.84375 " style="fill:none;stroke:#ff0000;stroke-width:0.1"/>
<polyline points="48.125,0 48.125,26.5625 " style="fill:none;stroke:#ff0000;stroke-width:0.1"/>
<polyline points="55.0,0 55.0,28.28125 " style="fill:none;stroke:#ff0000;stroke-width:0.1"/>
</g>
</g>
<g transform="translate(110.0,0)"
><g><polygon points="0.0,0 0.0,25.625 0.6875,25.96875 1.375,26.3125 2.0625,26.65625 2.75,27.0 3.4375,27.34375 4.125,27.6875 4.8125,28.03125 5.5,28.375 6.1875,28.71875 6.875,29.0625 7.562500000000001,29.40625 8.25,29.75 8.9375,30.09375 9.625,30.4375 10.3125,30.78125 11.0,31.125 11.6875,31.46875 12.375,31.8125 13.0625,32.15625 13.75,32.5 14.4375,32.84375 15.125000000000002,33.1875 15.812499999999998,33.53125 16.5,33.875 17.1875,34.21875 17.875,34.5625 18.5625,34.90625 19.25,35.25 19.9375,35.59375 20.625,35.9375 21.3125,36.28125 22.0,36.625 22.6875,36.96875 23.375,37.3125 24.0625,37.65625 24.75,38.0 25.4375,38.34375 26.125,38.6875 26.8125,39.03125 27.5,39.375 28.187499999999996,39.71875 28.875,40.0625 29.5625,40.40625 30.250000000000004,40.75 30.9375,41.09375 31.624999999999996,41.4375 32.3125,41.78125 33.0,42.125 33.6875,42.46875 34.375,42.8125 35.0625,43.15625 35.75,43.5 36.4375,43.84375 37.125,44.1875 37.8125,44.53125 38.5,44.875 39.1875,45.21875 39.875,45.5625 40.5625,45.90625 41.25,46.25 41.9375,46.59375 42.625,46.9375 43.3125,47.28125 44.0,47.625 44.6875,47.96875 45.375,48.3125 46.0625,48.65625 46.75,49.0 47.4375,49.34375 48.125,49.6875 48.8125,50.03125 49.5,50.375 50.1875,50.71875 50.875,51.0625 51.5625,51.40625 52.25,51.75 52.9375,52.09375 53.625,52.4375 54.3125,52.78125 55.0,53.125 55.0,0 " style="fill:none;stroke:#ff0000;stroke-width:0.1"/>
<polyline points="6.875,0 6.875,14.53125 " style="fill:none;stroke:#ff0000;stroke-width:0.1"/>
<polyline points="13.75,0 13.75,16.25 " style="fill:none;stroke:#ff0000;stroke-width:0.1"/>
<polyline points="20.625,0 20.625,17.96875 " style="fill:none;stroke:#ff0000;stroke-width:0.1"/>
<polyline points="27.5,0 27.5,19.6875 " style="fill:none;stroke:#ff0000;stroke-width:0.1"/>
<polyline points="34.375,0 34.375,21.40625 " style="fill:none;stroke:#ff0000;stroke-width:0.1"/>
<polyline points="41.25,0 41.25,23.125 " style="fill:none;stroke:#ff0000;stroke-width:0.1"/>
<polyline points="48.125,0 48.125,24.84375 " style="fill:none;stroke:#ff0000;stroke-width:0.1"/>
<polyline points="55.0,0 55.0,26.5625 " style="fill:none;stroke:#ff0000;stroke-width:0.1"/>
</g>
</g>
<g transform="translate(55.0,0)"
><g><polygon points="0.0,0 0.0,22.1875 0.6875,22.53125 1.375,22.875 2.0625,23.21875 2.75,23.5625 3.4375,23.90625 4.125,24.25 4.8125,24.59375 5.5,24.9375 6.1875,25.28125 6.875,25.625 7.562500000000001,25.96875 8.25,26.3125 8.9375,26.65625 9.625,27.0 10.3125,27.34375 11.0,27.6875 11.6875,28.03125 12.375,28.375 13.0625,28.71875 13.75,29.0625 14.4375,29.40625 15.125000000000002,29.75 15.812499999999998,30.09375 16.5,30.4375 17.1875,30.78125 17.875,31.125 18.5625,31.46875 19.25,31.8125 19.9375,32.15625 20.625,32.5 21.3125,32.84375 22.0,33.1875 22.6875,33.53125 23.375,33.875 24.0625,34.21875 24.75,34.5625 25.4375,34.90625 26.125,35.25 26.8125,35.59375 27.5,35.9375 28.187499999999996,36.28125 28.875,36.625 29.5625,36.96875 30.250000000000004,37.3125 30.9375,37.65625 31.624999999999996,38.0 32.3125,38.34375 33.0,38.6875 33.6875,39.03125 34.375,39.375 35.0625,39.71875 35.75,40.0625 36.4375,40.40625 37.125,40.75 37.8125,41.09375 38.5,41.4375 39.1875,41.78125 39.875,42.125 40.5625,42.46875 41.25,42.8125 41.9375,43.15625 42.625,43.5 43.3125,43.84375 44.0,44.1875 44.6875,44.53125 45.375,44.875 46.0625,45.21875 46.75,45.5625 47.4375,45.90625 48.125,46.25 48.8125,46.59375 49.5,46.9375 50.1875,47.28125 50.875,47.625 51.5625,47.96875 52.25,48.3125 52.9375,48.65625 53.625,49.0 54.3125,49.34375 55.0,49.6875 55.0,0 " style="fill:none;stroke:#ff0000;stroke-width:0.1"/>
<polyline points="6.875,0 6.875,12.8125 " style="fill:none;stroke:#ff0000;stroke-width:0.1"/>
<polyline points="13.75,0 13.75,14.53125 " style="fill:none;stroke:#ff0000;stroke-width:0.1"/>
<polyline points="20.625,0 20.625,16.25 " style="fill:none;stroke:#ff0000;stroke-width:0.1"/>
<polyline points="27.5,0 27.5,17.96875 " style="fill:none;stroke:#ff0000;stroke-width:0.1"/>
<polyline points="34.375,0 34.375,19.6875 " style="fill:none;stroke:#ff0000;stroke-width:0.1"/>
<polyline points="41.25,0 41.25,21.40625 " style="fill:none;stroke:#ff0000;stroke-width:0.1"/>
<polyline points="48.125,0 48.125,23.125 " style="fill:none;stroke:#ff0000;stroke-width:0.1"/>
<polyline points="55.0,0 55.0,24.84375 " style="fill:none;stroke:#ff0000;stroke-width:0.1"/>
</g>
</g>
<g><polygon points="0.0,0 0.0,18.75 0.6875,19.09375 1.375,19.4375 2.0625,19.78125 2.75,20.125 3.4375,20.46875 4.125,20.8125 4.8125,21.15625 5.5,21.5 6.1875,21.84375 6.875,22.1875 7.562500000000001,22.53125 8.25,22.875 8.9375,23.21875 9.625,23.5625 10.3125,23.90625 11.0,24.25 11.6875,24.59375 12.375,24.9375 13.0625,25.28125 13.75,25.625 14.4375,25.96875 15.125000000000002,26.3125 15.812499999999998,26.65625 16.5,27.0 17.1875,27.34375 17.875,27.6875 18.5625,28.03125 19.25,28.375 19.9375,28.71875 20.625,29.0625 21.3125,29.40625 22.0,29.75 22.6875,30.09375 23.375,30.4375 24.0625,30.78125 24.75,31.125 25.4375,31.46875 26.125,31.8125 26.8125,32.15625 27.5,32.5 28.187499999999996,32.84375 28.875,33.1875 29.5625,33.53125 30.250000000000004,33.875 30.9375,34.21875 31.624999999999996,34.5625 32.3125,34.90625 33.0,35.25 33.6875,35.59375 34.375,35.9375 35.0625,36.28125 35.75,36.625 36.4375,36.96875 37.125,37.3125 37.8125,37.65625 38.5,38.0 39.1875,38.34375 39.875,38.6875 40.5625,39.03125 41.25,39.375 41.9375,39.71875 42.625,40.0625 43.3125,40.40625 44.0,40.75 44.6875,41.09375 45.375,41.4375 46.0625,41.78125 46.75,42.125 47.4375,42.46875 48.125,42.8125 48.8125,43.15625 49.5,43.5 50.1875,43.84375 50.875,44.1875 51.5625,44.53125 52.25,44.875 52.9375,45.21875 53.625,45.5625 54.3125,45.90625 55.0,46.25 55.0,0 " style="fill:none;stroke:#ff0000;stroke-width:0.1"/>
<polyline points="6.875,0 6.875,11.09375 " style="fill:none;stroke:#ff0000;stroke-width:0.1"/>
<polyline points="13.75,0 13.75,12.8125 " style="fill:none;stroke:#ff0000;stroke-width:0.1"/>
<polyline points="20.625,0 20.625,14.53125 " style="fill:none;stroke:#ff0000;stroke-width:0.1"/>
<polyline points="27.5,0 27.5,16.25 " style="fill:none;stroke:#ff0000;stroke-width:0.1"/>
<polyline points="34.375,0 34.375,17.96875 " style="fill:none;stroke:#ff0000;stroke-width:0.1"/>
<polyline points="41.25,0 41.25,19.6875 " style="fill:none;stroke:#ff0000;stroke-width:0.1"/>
<polyline points="48.125,0 48.125,21.40625 " style="fill:none;stroke:#ff0000;stroke-width:0.1"/>
<polyline points="55.0,0 55.0,23.125 " style="fill:none;stroke:#ff0000;stroke-width:0.1"/>
</g>
</g>

</g>
</svg>
